<svg width="45" height="45" viewBox="0 0 45 45" fill="none" xmlns="http://www.w3.org/2000/svg">
<path d="M22.5 1.87483C17.0877 1.81984 11.8751 3.91597 8.00762 7.70257C4.14016 11.4892 1.93436 16.6564 1.875 22.0686C1.89585 26.3458 3.27177 30.5063 5.80512 33.9526C8.33847 37.3989 11.8989 39.9536 15.975 41.2498C17.0063 41.4373 17.3813 40.8186 17.3813 40.2748C17.3813 39.7311 17.3813 38.5311 17.3813 36.8436C11.6438 38.0623 10.425 34.1436 10.425 34.1436C10.0431 32.9134 9.23106 31.8618 8.1375 31.1811C6.2625 29.9436 8.2875 29.9623 8.2875 29.9623C8.9356 30.049 9.55567 30.2812 10.1012 30.6417C10.6467 31.0021 11.1036 31.4814 11.4375 32.0436C12.0194 33.0526 12.9741 33.7928 14.0963 34.1048C15.2184 34.4169 16.4182 34.276 17.4375 33.7123C17.5423 32.6855 18.0073 31.729 18.75 31.0123C14.175 30.5061 9.375 28.7811 9.375 21.0373C9.33409 19.0174 10.0805 17.0607 11.4563 15.5811C10.8297 13.8468 10.9037 11.9367 11.6625 10.2561C11.6625 10.2561 13.4063 9.71233 17.2875 12.3186C20.6661 11.4183 24.2214 11.4183 27.6 12.3186C31.5375 9.71233 33.225 10.2561 33.225 10.2561C33.9838 11.9367 34.0578 13.8468 33.4312 15.5811C34.839 17.0335 35.6258 18.9771 35.625 20.9998C35.625 28.7623 30.7875 30.4686 26.25 30.9748C26.7468 31.4572 27.1306 32.0437 27.3738 32.6921C27.6169 33.3405 27.7134 34.0347 27.6562 34.7248V40.2561C27.6562 40.2561 28.0312 41.4373 29.0625 41.2311C33.127 39.9268 36.6755 37.3715 39.201 33.9301C41.7265 30.4887 43.0999 26.3372 43.125 22.0686C43.0656 16.6564 40.8598 11.4892 36.9924 7.70257C33.1249 3.91597 27.9123 1.81984 22.5 1.87483Z" fill="white"/>
</svg>
