<svg width="37" height="38" viewBox="0 0 37 38" fill="none" xmlns="http://www.w3.org/2000/svg">
<path d="M12.7668 31.4351C14.9897 31.5109 17.205 31.1321 19.2817 30.3211C21.3584 29.5101 23.2544 28.2834 24.8577 26.7135C26.4609 25.1435 27.7389 23.2623 28.6161 21.1808C29.4932 19.0993 29.9517 16.8599 29.9646 14.5949C30.9833 13.3111 31.7397 11.8329 32.1894 10.2471C32.223 10.1218 32.2203 9.98929 32.1816 9.86553C32.143 9.74178 32.07 9.63204 31.9715 9.54954C31.873 9.46703 31.7532 9.41529 31.6265 9.40052C31.4998 9.38575 31.3716 9.4086 31.2574 9.46631C30.7244 9.72757 30.1244 9.81196 29.5419 9.70759C28.9594 9.60322 28.4237 9.31536 28.0103 8.88456C27.4825 8.29603 26.8442 7.82137 26.133 7.4887C25.4218 7.15602 24.6523 6.9721 23.8701 6.94783C23.0879 6.92356 22.3088 7.05944 21.5791 7.34741C20.8493 7.63538 20.1838 8.06958 19.6219 8.6243C18.8525 9.38312 18.2889 10.3317 17.986 11.3779C17.6831 12.4242 17.651 13.5324 17.8931 14.5949C12.857 14.9011 9.39942 12.4669 6.63335 9.1295C6.55026 9.03367 6.44155 8.96455 6.32052 8.93059C6.19949 8.89663 6.07137 8.89929 5.9518 8.93826C5.83223 8.97722 5.72639 9.0508 5.6472 9.15001C5.56801 9.24922 5.51891 9.36977 5.50588 9.49693C4.97893 12.4737 5.35905 15.5434 6.5952 18.2937C7.83134 21.0441 9.86431 23.3434 12.4211 24.8828C10.7067 26.8849 8.29932 28.1355 5.70131 28.3733C5.56212 28.3968 5.43363 28.464 5.33383 28.5656C5.23402 28.6671 5.1679 28.7979 5.1447 28.9396C5.12151 29.0814 5.14241 29.2269 5.20447 29.356C5.26654 29.485 5.36667 29.591 5.49085 29.6592C7.75109 30.8095 10.2401 31.417 12.7668 31.4351Z" fill="white"/>
</svg>
