<svg width="37" height="37" viewBox="0 0 37 37" fill="none" xmlns="http://www.w3.org/2000/svg">
<path d="M33.9433 0H3.32679C1.86263 0 0.674438 1.18647 0.674438 2.64748V34.0912C0.674438 35.5543 1.86263 36.7423 3.32679 36.7423H33.9433C35.4085 36.7423 36.6047 35.5543 36.6047 34.0912V2.64748C36.6047 1.18647 35.4085 0 33.9433 0ZM11.3307 31.3095H5.9991V13.7758H11.3307V31.3095ZM8.66492 11.3784C6.95674 11.3784 5.57592 9.96277 5.57592 8.21751C5.57592 6.4748 6.95674 5.05921 8.66492 5.05921C10.3691 5.05921 11.7534 6.4748 11.7534 8.21751C11.7534 9.96277 10.3691 11.3784 8.66492 11.3784ZM31.29 31.3095H25.9668V22.7833C25.9668 20.7492 25.9279 18.1338 23.1967 18.1338C20.4231 18.1338 20.0004 20.3491 20.0004 22.6358V31.31H14.6733V13.7758H19.7858V16.1702H19.8587C20.5703 14.7923 22.3089 13.3385 24.9019 13.3385C30.2944 13.3385 31.2905 16.9688 31.2905 21.6917L31.29 31.3095Z" fill="white"/>
</svg>
