<svg width="49" height="48" viewBox="0 0 49 48" fill="none" xmlns="http://www.w3.org/2000/svg">
<path d="M30.4941 44.8319C26.0094 46.3413 21.1614 46.3891 16.6478 44.9685C12.1342 43.5479 8.18758 40.732 5.37584 36.9261C2.56409 33.1202 1.03218 28.5204 1.0005 23.7886C0.968826 19.0568 2.43903 14.4369 5.19956 10.5937C7.9601 6.75043 11.8687 3.88198 16.3629 2.40105C20.8571 0.920115 25.7052 0.903039 30.2097 2.35228C34.7142 3.80152 38.6429 6.64236 41.4304 10.466C44.218 14.2897 45.7207 18.8991 45.7223 23.6311C45.6501 25.4448 45.4305 27.2498 45.0657 29.028" stroke="white" stroke-width="2"/>
<path d="M28.6321 40.6763C27.0235 42.504 25.2599 44.1893 23.3611 45.7134" stroke="white" stroke-width="2"/>
<path d="M23.3611 1.00903C29.3971 6.28263 33.132 13.7072 33.7682 21.6972C33.8988 23.1476 33.9258 24.6054 33.8491 26.0597" stroke="white" stroke-width="2"/>
<path d="M23.3612 1.00903C20.0862 3.86353 17.4552 7.38133 15.6425 11.3294C13.8297 15.2775 12.8766 19.5657 12.8462 23.9099C12.8462 38.4815 19.3944 42.7991 23.3342 45.7134" stroke="white" stroke-width="2"/>
<path d="M3.90533 12.6124H42.925" stroke="white" stroke-width="2"/>
<path d="M23.3611 1V45.7133" stroke="white" stroke-width="2"/>
<path d="M4.51697 35.6212H27.8946" stroke="white" stroke-width="2"/>
<path d="M1 23.9099L45.7223 23.3612" stroke="white" stroke-width="2"/>
<path d="M42.7631 45.9831L46.7478 41.9894L39.552 34.7936L43.6446 32.1761C43.7042 32.1408 43.7518 32.0883 43.7809 32.0254C43.81 31.9626 43.8193 31.8923 43.8076 31.8241C43.7959 31.7558 43.7637 31.6927 43.7153 31.6431C43.6669 31.5935 43.6046 31.5598 43.5367 31.5464L29.7836 28.3263C29.7268 28.3147 29.668 28.3174 29.6125 28.3341C29.557 28.3508 29.5065 28.381 29.4655 28.422C29.4245 28.4629 29.3943 28.5135 29.3776 28.569C29.3609 28.6245 29.3582 28.6832 29.3698 28.74L32.3561 42.754C32.3704 42.8221 32.4047 42.8844 32.4546 42.933C32.5045 42.9816 32.5677 43.0142 32.6362 43.0267C32.7046 43.0393 32.7753 43.0312 32.8392 43.0034C32.903 42.9757 32.9572 42.9296 32.9947 42.8709L35.5672 38.7873L42.7631 45.9831Z" stroke="white" stroke-width="2"/>
</svg>
