<svg width="75" height="44" viewBox="0 0 75 44" fill="none" xmlns="http://www.w3.org/2000/svg">
<path d="M71.875 6.28571H3.125C1.40625 6.28571 0 4.87143 0 3.14286C0 1.41429 1.40625 0 3.125 0H71.875C73.5938 0 75 1.41429 75 3.14286C75 4.87143 73.5938 6.28571 71.875 6.28571ZM71.875 25.1429H3.125C1.40625 25.1429 0 23.7286 0 22C0 20.2714 1.40625 18.8571 3.125 18.8571H71.875C73.5938 18.8571 75 20.2714 75 22C75 23.7286 73.5938 25.1429 71.875 25.1429ZM71.875 44H3.125C1.40625 44 0 42.5857 0 40.8571C0 39.1286 1.40625 37.7143 3.125 37.7143H71.875C73.5938 37.7143 75 39.1286 75 40.8571C75 42.5857 73.5938 44 71.875 44Z" fill="white"/>
</svg>
