<svg width="66" height="45" viewBox="0 0 66 45" fill="none" xmlns="http://www.w3.org/2000/svg">
<path d="M63.8107 6.94078C63.0365 4.22529 60.8934 2.09557 58.1329 1.34271C53.0501 6.41905e-05 32.6167 6.45151e-05 32.6167 6.45151e-05C32.6167 6.45151e-05 12.2221 -0.0321434 7.08622 1.34271C4.34004 2.09758 2.18669 4.22529 1.4207 6.94078C0.45709 12.0879 -0.0216577 17.2975 0.000751719 22.5312C-0.0094344 27.7307 0.467276 32.9322 1.4207 38.0472C2.18669 40.7627 4.34004 42.8924 7.08622 43.6573C12.1691 45 32.6167 45 32.6167 45C32.6167 45 52.9991 45 58.1329 43.6573C60.8934 42.8924 63.0365 40.7647 63.8107 38.0472C64.7458 32.9322 65.2021 27.7307 65.1695 22.5312C65.2021 17.2975 64.756 12.0879 63.8107 6.94078ZM26.0894 32.1673V12.8529L43.0982 22.5312L26.0894 32.1673Z" fill="white"/>
</svg>
