<svg width="37" height="37" viewBox="0 0 37 37" fill="none" xmlns="http://www.w3.org/2000/svg">
<path fill-rule="evenodd" clip-rule="evenodd" d="M10.9405 0.110227C12.8993 0.0204086 13.5237 0 18.5117 0C23.5006 0 24.124 0.0214274 26.0818 0.110227C28.0376 0.199026 29.3732 0.510317 30.5413 0.964485C31.7666 1.42595 32.8764 2.14899 33.7938 3.08329C34.7279 4.0009 35.4508 5.11128 35.9119 6.33702C36.3658 7.50563 36.676 8.84163 36.7658 10.7971C36.8557 12.7567 36.876 13.3813 36.876 18.3711C36.876 23.3609 36.8547 23.9855 36.7658 25.9452C36.677 27.9006 36.3658 29.2367 35.9119 30.4052C35.4426 31.6127 34.814 32.6383 33.7938 33.6589C32.8766 34.5933 31.7666 35.3165 30.5413 35.7778C29.3732 36.2319 28.0376 36.5422 26.083 36.632C24.124 36.7219 23.4996 36.7423 18.5117 36.7423C13.5237 36.7423 12.8993 36.7209 10.9405 36.632C8.9857 36.5432 7.65019 36.2319 6.48202 35.7778C5.27506 35.3083 4.24973 34.6795 3.22949 33.6589C2.29537 32.7414 1.57255 31.6309 1.11147 30.4052C0.657467 29.2367 0.34731 27.9006 0.257525 25.9452C0.16774 23.9855 0.147339 23.3619 0.147339 18.3711C0.147339 13.3803 0.168758 12.7567 0.257525 10.7982C0.346291 8.84163 0.657467 7.50563 1.11147 6.33702C1.57276 5.11137 2.29553 4.00103 3.22949 3.08329C4.14674 2.14882 5.25672 1.42573 6.48202 0.964485C7.65019 0.510317 8.9857 0.200045 10.9405 0.110227ZM25.9329 3.41703C23.9964 3.32925 23.415 3.30986 18.5117 3.30986C13.6084 3.30986 13.0269 3.32925 11.0904 3.41703C9.29993 3.49868 8.32763 3.79771 7.68079 4.04982C6.8238 4.38253 6.21164 4.78057 5.56889 5.42356C4.92718 6.06655 4.52825 6.67893 4.19566 7.53624C3.94365 8.18332 3.64473 9.15597 3.56311 10.9472C3.47536 12.8843 3.45598 13.466 3.45598 18.3711C3.45598 23.2762 3.47536 23.8579 3.56311 25.7951C3.64473 27.5863 3.94365 28.5589 4.19566 29.2061C4.48985 30.0041 4.95911 30.7259 5.56889 31.3188C6.16139 31.9287 6.88306 32.3982 7.68079 32.6924C8.32763 32.9446 9.29993 33.2436 11.0904 33.3252C13.0269 33.4131 13.6074 33.4325 18.5117 33.4325C23.416 33.4325 23.9964 33.4131 25.9329 33.3252C27.7234 33.2436 28.6957 32.9446 29.3426 32.6924C30.1996 32.3597 30.8118 31.9618 31.4545 31.3188C32.0642 30.7261 32.5335 30.0041 32.8277 29.2061C33.0798 28.5589 33.3786 27.5863 33.4603 25.7951C33.5481 23.8579 33.5674 23.2762 33.5674 18.3711C33.5674 13.466 33.5481 12.8843 33.4603 10.9472C33.3786 9.15597 33.0798 8.18332 32.8277 7.53624C32.4951 6.67893 32.0973 6.06655 31.4545 5.42356C30.8118 4.78161 30.1996 4.38253 29.3426 4.04982C28.6957 3.79771 27.7234 3.49868 25.9329 3.41703ZM16.1669 24.0343C16.9103 24.3424 17.707 24.5009 18.5117 24.5009C20.1369 24.5009 21.6954 23.8551 22.8445 22.7056C23.9938 21.556 24.6394 19.9968 24.6394 18.3711C24.6394 16.7455 23.9938 15.1862 22.8445 14.0367C21.6954 12.8871 20.1369 12.2413 18.5117 12.2413C17.707 12.2413 16.9103 12.3998 16.1669 12.7079C15.4233 13.0159 14.7479 13.4675 14.1789 14.0367C13.6099 14.6059 13.1585 15.2816 12.8506 16.0253C12.5427 16.769 12.3842 17.5661 12.3842 18.3711C12.3842 19.1761 12.5427 19.9733 12.8506 20.717C13.1585 21.4607 13.6099 22.1364 14.1789 22.7056C14.7479 23.2747 15.4233 23.7263 16.1669 24.0343ZM11.8372 11.6941C13.6074 9.92322 16.0083 8.92835 18.5117 8.92835C21.0152 8.92835 23.4161 9.92322 25.1863 11.6941C26.9564 13.4649 27.951 15.8668 27.951 18.3711C27.951 20.8755 26.9564 23.2772 25.1863 25.0482C23.4161 26.819 21.0152 27.8139 18.5117 27.8139C16.0083 27.8139 13.6074 26.819 11.8372 25.0482C10.067 23.2772 9.07246 20.8755 9.07246 18.3711C9.07246 15.8668 10.067 13.4649 11.8372 11.6941ZM30.044 10.3352C30.4624 9.91662 30.6974 9.34889 30.6974 8.7569C30.6974 8.1649 30.4624 7.59717 30.044 7.17857C29.6254 6.75998 29.058 6.52481 28.4662 6.52481C27.8745 6.52481 27.3069 6.75998 26.8885 7.17857C26.4699 7.59717 26.2349 8.1649 26.2349 8.7569C26.2349 9.34889 26.4699 9.91662 26.8885 10.3352C27.3069 10.7538 27.8745 10.989 28.4662 10.989C29.058 10.989 29.6254 10.7538 30.044 10.3352Z" fill="white"/>
</svg>
