<svg width="163" height="71" viewBox="0 0 163 71" fill="none" xmlns="http://www.w3.org/2000/svg">
<path d="M42.7946 4.05933V2.02966V0H50.9334V4.05933H42.7946Z" fill="white"/>
<path d="M8.71644 20.1952C9.84537 19.84 11.5519 19.434 12.5233 19.3072C13.521 19.155 16.0151 19.1042 18.1155 19.155C20.2158 19.2311 22.6837 19.434 23.6289 19.637C24.5741 19.8146 26.0968 20.322 27.042 20.7279C28.0134 21.1592 29.4048 22.0726 30.2975 22.8591C31.4002 23.8485 32.0828 24.7619 32.7654 26.1319C33.6318 27.8318 33.7368 28.3138 33.9994 33.2357H29.6674V36.1534C29.6674 37.9293 29.5624 39.071 29.4048 39.071C29.2473 39.071 29.1423 39.2994 29.1423 39.5784C29.1423 39.8575 28.9585 40.2635 28.7222 40.4664C28.3547 40.7962 28.4072 40.847 29.9299 40.847V44.9063C29.9299 48.788 29.9037 48.9656 29.4048 48.9656C29.1161 48.9656 28.8798 49.1432 28.8798 49.3462C28.8798 49.5492 28.5385 49.8029 28.0921 49.9297C27.6458 50.0312 27.3045 50.1834 27.3045 50.3103C27.3045 50.4118 26.9632 50.4879 25.7292 50.4879V47.6971C25.7292 45.9973 25.6242 44.9063 25.4667 44.9063C25.3092 44.9063 25.1516 45.1093 25.0991 45.363C25.0204 45.5913 24.3903 46.048 23.7077 46.3524C23.025 46.6315 20.3734 47.5956 17.8529 48.4582C15.3325 49.3462 12.8384 50.2596 12.3395 50.5133C11.8407 50.767 11.1056 51.249 10.6855 51.6042C10.2917 51.9594 9.66159 52.7459 9.26778 53.3548C8.71644 54.192 8.53266 54.8009 8.45389 56.1963C8.37513 57.3634 8.48015 58.4797 8.76895 59.4438C9.00524 60.2303 9.50407 61.2451 9.89788 61.6764C10.318 62.1331 11.0531 62.6912 11.5519 62.9196C12.0507 63.1733 13.2322 63.5285 14.1773 63.7061C15.2275 63.8837 16.7503 63.9598 18.1155 63.8583C19.3494 63.7822 20.8722 63.5285 21.5285 63.3001C22.1849 63.0718 23.025 62.6659 23.4189 62.3868C23.8389 62.1331 24.4428 61.2958 24.8103 60.5855C25.3354 59.5453 25.5192 58.6573 25.8605 54.0398H29.6674V56.5769H33.9994L33.8418 59.1647C33.7106 60.8899 33.448 62.336 33.0542 63.427C32.6341 64.5687 32.0303 65.482 31.1114 66.4461C30.14 67.4356 29.1686 68.0952 27.4358 68.9071C26.0968 69.516 24.154 70.201 22.9725 70.4293C21.5548 70.7084 19.5857 70.8606 16.934 70.8606C14.2824 70.8606 12.3133 70.7084 10.8955 70.4293C9.74036 70.201 7.79754 69.5414 6.56358 68.9578C5.22461 68.3236 3.85939 67.4356 3.12426 66.7506C2.46791 66.1163 1.68028 65.1268 1.39148 64.5687C1.07643 64.0105 0.656358 62.6659 0.420069 61.6003C0.18378 60.5094 0 58.4543 0 57.0336C0 55.5874 0.131272 53.6846 0.262543 52.7713C0.420069 51.8579 0.945156 50.3357 1.41773 49.3462C1.94282 48.2553 2.78296 47.0882 3.57059 46.3524C4.27946 45.6674 5.43465 44.8302 6.16977 44.5004C6.87863 44.1706 9.84537 43.105 12.7333 42.1409C15.6213 41.1768 19.1132 39.9844 20.4784 39.477C21.8436 38.9695 23.2613 38.3099 23.6026 37.9801C23.9439 37.6756 24.5215 36.9653 24.8891 36.4071C25.3617 35.6713 25.598 34.9356 25.6767 33.7432C25.7555 32.8298 25.6767 31.5359 25.493 30.8255C25.3354 30.0898 24.8366 29.151 24.3378 28.5675C23.8914 28.0347 22.8413 27.299 22.0536 26.9184C20.6884 26.3095 20.3734 26.2588 16.934 26.2588C14.1773 26.2841 13.0221 26.3856 12.3395 26.6647C11.8407 26.893 11.0793 27.3497 10.633 27.7049C10.1867 28.0601 9.55658 28.8973 9.21527 29.5823C8.84771 30.2674 8.5064 31.3076 8.27011 32.982H0V31.5359C0 30.724 0.18378 29.2525 0.420069 28.2884C0.630104 27.3243 1.12894 25.9543 1.52275 25.2693C1.91657 24.5843 2.7042 23.6202 3.28179 23.1128C3.85939 22.6054 4.85705 21.8696 5.51341 21.5144C6.16977 21.1339 7.61376 20.5503 8.71644 20.1952Z" fill="white"/>
<path d="M137.573 20.2205C138.807 19.84 140.566 19.4087 141.511 19.2818C142.456 19.155 144.924 19.1042 147.024 19.155C149.125 19.2311 151.592 19.434 152.538 19.637C153.483 19.8146 155.006 20.322 155.951 20.7279C156.975 21.1592 158.261 22.0219 159.18 22.8337C160.02 23.5948 160.992 24.6858 161.333 25.2439C161.674 25.8021 162.147 26.9438 162.357 27.781C162.593 28.6183 162.777 30.1405 162.777 32.982H158.576V36.0265C158.576 38.5636 158.497 39.071 158.182 39.071C157.92 39.071 157.762 39.367 157.71 39.959C157.657 40.7201 157.736 40.847 158.235 40.847C158.839 40.847 158.839 40.8724 158.839 44.906V44.9063C158.839 47.4434 158.734 48.9656 158.576 48.9656C158.445 48.9656 158.077 49.194 157.789 49.4731C157.5 49.7521 157.027 49.9805 156.738 49.9805C156.45 49.9805 156.213 50.082 156.213 50.2342C156.213 50.3864 155.924 50.4879 155.557 50.4879C155.189 50.4879 154.848 50.6401 154.796 50.8177C154.717 50.9699 154.664 49.7014 154.664 47.9508C154.638 44.9063 154.612 44.8048 154.165 45.3122C153.929 45.6167 153.352 46.048 152.931 46.251C152.511 46.4539 149.912 47.3927 147.156 48.3314C144.399 49.2701 141.747 50.2342 141.248 50.4879C140.749 50.7162 139.804 51.5027 139.148 52.1877C138.387 52.9996 137.861 53.8368 137.625 54.6233C137.468 55.283 137.31 56.2724 137.31 56.8306C137.31 57.3887 137.415 58.3782 137.573 59.0632C137.704 59.7229 138.177 60.7377 138.623 61.3466C139.043 61.9301 139.857 62.6151 140.382 62.8942C140.933 63.1479 142.01 63.5031 142.745 63.6553C143.506 63.8076 145.003 63.9344 146.027 63.9344C147.077 63.9344 148.652 63.7568 149.518 63.5538C150.385 63.3255 151.54 62.8688 152.065 62.539C152.748 62.1077 153.299 61.4227 153.772 60.4586C154.349 59.2662 154.507 58.5558 154.638 54.5472H158.576V56.8306H162.777V58.6827C162.777 59.6721 162.593 61.2451 162.357 62.1585C162.147 63.0718 161.7 64.2642 161.359 64.8224C161.018 65.3805 160.151 66.3446 159.443 66.9789C158.734 67.6132 157.395 68.4758 156.45 68.9071C155.531 69.3638 154.06 69.8965 153.194 70.1249C152.328 70.3279 150.306 70.6577 148.731 70.8099C146.657 71.0129 145.029 71.0129 142.955 70.8099C141.38 70.6577 139.253 70.3025 138.229 69.998C137.205 69.7189 135.682 69.1101 134.816 68.6787C133.95 68.2221 132.663 67.3087 131.928 66.5983C131.035 65.7357 130.405 64.8478 130.011 63.8837C129.696 63.0718 129.303 61.5242 129.145 60.4586C128.961 59.3169 128.909 57.1858 129.014 55.4352C129.119 53.3294 129.329 51.9087 129.696 50.8685C129.985 50.0312 130.51 48.8895 130.852 48.3314C131.193 47.7732 132.086 46.7838 132.821 46.1241C133.556 45.4391 134.658 44.678 135.262 44.4243C135.892 44.1452 138.938 43.0542 142.036 42.014C145.134 40.9738 148.389 39.8829 149.256 39.5784C150.122 39.274 151.12 38.8681 151.487 38.6905C151.855 38.5129 152.59 37.8786 153.141 37.2697C153.693 36.6608 154.27 35.7475 154.428 35.2654C154.585 34.7834 154.664 33.4641 154.612 32.3224C154.533 30.6226 154.375 30.1151 153.772 29.2272C153.378 28.6436 152.511 27.8318 151.803 27.4005C151.12 26.9945 150.017 26.5379 149.308 26.3856C148.626 26.2588 147.156 26.1319 146.027 26.1319C144.924 26.1319 143.349 26.2334 142.561 26.3856C141.773 26.5379 140.671 26.9438 140.119 27.2736C139.594 27.6288 138.807 28.5168 138.36 29.2525C137.94 29.9629 137.494 31.13 137.179 33.0074L129.04 32.8552L128.961 31.8404C128.909 31.2822 128.988 30.0898 129.145 29.1764C129.276 28.2631 129.67 26.9692 129.959 26.2588C130.274 25.5738 130.957 24.4828 131.482 23.8739C132.007 23.2397 133.109 22.3263 133.897 21.8189C134.685 21.3368 136.339 20.6011 137.573 20.2205Z" fill="white"/>
<path d="M59.5711 39.5531C59.5448 28.7197 59.6236 19.7892 59.7286 19.6877C59.8599 19.6116 61.7502 19.5609 67.8674 19.6624L68.13 59.4945L68.7863 60.5855C69.1539 61.1944 69.889 61.9555 70.4141 62.3107C70.9655 62.6405 72.0944 63.0972 72.9083 63.3001C73.7484 63.5031 75.3762 63.6807 76.5314 63.6807C77.6866 63.6807 79.2881 63.5031 80.0757 63.3001C80.8633 63.0972 82.0185 62.6405 82.6224 62.2853C83.3312 61.8794 84.0139 61.2197 84.4602 60.4586C85.0378 59.4692 85.1953 58.8095 85.4578 54.5472H89.2647V56.5769H93.4654V58.3021C93.4654 59.2408 93.3341 60.6869 93.1766 61.5242C93.0191 62.3614 92.6253 63.5538 92.284 64.1881C91.9689 64.8224 91.1288 65.888 90.4199 66.5476C89.6585 67.2834 88.2933 68.1713 87.0331 68.7802C85.8779 69.313 84.0401 69.9473 82.9637 70.1756C81.5985 70.4801 79.6819 70.6069 76.6626 70.6069C73.4596 70.6069 71.7793 70.5054 70.2303 70.1756C69.0751 69.9219 67.2373 69.313 66.1609 68.8056C64.927 68.2475 63.693 67.4102 62.8529 66.6237C62.1177 65.9133 61.2514 64.8224 60.91 64.1881C60.595 63.5538 60.1487 62.1838 59.9649 61.1436C59.7023 59.6975 59.5973 54.6233 59.5711 39.5531Z" fill="white"/>
<path d="M85.3266 23.5948V21.5652V19.5355H93.4654V23.5948H85.3266Z" fill="white"/>
<path d="M42.7946 70.0234V37.0414V4.05933H50.9334V70.0234H42.7946Z" fill="white"/>
<path d="M85.3266 54.5472V39.071V23.5948H93.4654V56.5769H89.2647V54.5472H85.3266Z" fill="white"/>
<path d="M158.182 39.071C158.497 39.071 158.576 38.5636 158.576 36.0265V32.982H162.777V56.8306H158.576V54.5472H154.638V52.8981C154.638 51.9848 154.691 51.0714 154.769 50.8684C154.848 50.6655 155.189 50.4879 155.557 50.4879C155.924 50.4879 156.213 50.3864 156.213 50.2342C156.213 50.082 156.45 49.9805 156.738 49.9805C157.027 49.9805 157.5 49.7521 157.789 49.4731C158.077 49.194 158.445 48.9656 158.576 48.9656C158.734 48.9656 158.839 47.4434 158.839 44.9063C158.839 40.8724 158.839 40.847 158.235 40.847C157.736 40.847 157.657 40.7201 157.71 39.959C157.762 39.367 157.92 39.071 158.182 39.071Z" fill="white"/>
<path d="M29.4049 39.071C29.5624 39.071 29.6674 37.9293 29.6674 36.1534V33.2357H33.8681V56.5769H29.6674V54.0398H25.7292V50.4879H26.5169C26.9632 50.4879 27.3045 50.4118 27.3045 50.3103C27.3045 50.1834 27.6458 50.0312 28.0921 49.9297C28.5385 49.8029 28.8798 49.5492 28.8798 49.3462C28.8798 49.1432 29.1161 48.9656 29.4049 48.9656C29.9037 48.9656 29.9299 48.788 29.9299 40.847H29.1161C28.4072 40.847 28.3547 40.7962 28.7222 40.4664C28.9585 40.2635 29.1423 39.8575 29.1423 39.5784C29.1423 39.2994 29.2473 39.071 29.4049 39.071Z" fill="white"/>
<path d="M85.2478 47.3165C85.2215 52.4922 85.1953 48.306 85.1953 38.0562C85.1953 27.8064 85.2215 23.5695 85.2478 28.669C85.3003 33.7685 85.3003 42.1663 85.2478 47.3165Z" fill="#231F20" fill-opacity="0.5"/>
<path d="M154.48 48.0777C154.428 47.7986 154.375 47.0375 154.323 46.3778C154.27 45.6928 154.323 45.16 154.428 45.16C154.559 45.16 154.612 45.9212 154.612 46.8852C154.585 47.824 154.533 48.3568 154.48 48.0777Z" fill="#231F20" fill-opacity="0.5"/>
<path d="M42.7158 49.5999C42.6895 58.8095 42.6633 51.4012 42.6633 33.1089C42.6633 14.8165 42.6895 7.28141 42.7158 16.3642C42.7683 25.4215 42.7683 40.3903 42.7158 49.5999Z" fill="#231F20" fill-opacity="0.6"/>
<path d="M154.559 54.9278C154.533 56.0441 154.48 55.0292 154.48 52.6444C154.48 50.2595 154.533 49.3716 154.559 50.6147C154.612 51.8579 154.612 53.8114 154.559 54.9278Z" fill="#231F20" fill-opacity="0.6"/>
<path d="M51.1175 52.6445C51.0911 62.26 51.0647 54.3443 51.0647 35.0118C51.0647 15.6793 51.0911 7.81431 51.1175 17.506C51.1704 27.1976 51.1704 43.029 51.1175 52.6445Z" fill="#231F20" fill-opacity="0.4"/>
<path d="M93.6495 47.3165C93.6231 51.7817 93.5967 48.2552 93.5967 39.4515C93.5967 30.6478 93.6231 26.9945 93.6495 31.3329C93.7023 35.6713 93.7023 42.8512 93.6495 47.3165Z" fill="#231F20" fill-opacity="0.5"/>
<path d="M68.1828 47.3166C68.1564 52.4923 68.13 48.3822 68.13 38.1831C68.13 27.9841 68.1564 23.7725 68.1828 28.7959C68.2357 33.8194 68.2357 42.1663 68.1828 47.3166Z" fill="#231F20" fill-opacity="0.2"/>
<path d="M93.6492 22.5799C93.5967 23.2142 93.5442 22.7575 93.5442 21.5651C93.5442 20.3727 93.5967 19.8653 93.6492 20.4234C93.7017 20.9816 93.7017 21.9457 93.6492 22.5799Z" fill="#231F20" fill-opacity="0.5"/>
<path d="M162.961 52.1369C162.934 56.3231 162.908 52.9995 162.908 44.7794C162.908 36.5592 162.934 33.1342 162.961 37.1681C163.013 41.2021 163.013 47.9507 162.961 52.1369Z" fill="#231F20" fill-opacity="0.5"/>
<path d="M93.6492 58.3528C93.5967 58.987 93.5442 58.5304 93.5442 57.3379C93.5442 56.1455 93.5967 55.6381 93.6492 56.1962C93.7017 56.7544 93.7017 57.7185 93.6492 58.3528Z" fill="#231F20" fill-opacity="0.5"/>
<path d="M34.0522 52.137C34.0258 56.3232 33.9994 52.9996 33.9994 44.7795C33.9994 36.5593 34.0258 33.1343 34.0522 37.1682C34.105 41.2022 34.105 47.9508 34.0522 52.137Z" fill="#231F20" fill-opacity="0.4"/>
<path d="M25.6505 54.0399C25.6242 55.7905 25.5717 54.4712 25.5717 51.1223C25.5717 47.7733 25.6242 46.3526 25.6505 47.9509C25.703 49.5493 25.703 52.2893 25.6505 54.0399Z" fill="#231F20" fill-opacity="0.7"/>
<path d="M49.8832 70.2011C49.2269 70.2518 48.2292 70.2518 47.6516 70.2011C47.074 70.1504 47.5991 70.0996 48.8331 70.0996C50.067 70.0996 50.5396 70.1504 49.8832 70.2011Z" fill="#231F20" fill-opacity="0.7"/>
<path d="M42.6633 70.1502L42.637 68.1713V66.2178L42.7945 70.0234L46.7327 70.1502H42.6633Z" fill="#231F20" fill-opacity="0.6"/>
<path d="M18.2468 18.9517C17.5379 19.0024 16.409 19.0024 15.7526 18.9517C15.0962 18.9011 15.7001 18.8757 17.0653 18.8757C18.4305 18.8757 18.9819 18.9011 18.2468 18.9517Z" fill="#231F20" fill-opacity="0.4"/>
<path d="M147.156 18.9517C146.447 19.0024 145.318 19.0024 144.661 18.9517C144.005 18.9011 144.609 18.8757 145.974 18.8757C147.339 18.8757 147.891 18.9011 147.156 18.9517Z" fill="#231F20" fill-opacity="0.4"/>
<path d="M78.2379 70.962C77.1615 71.0127 75.5075 71.0127 74.5623 70.962C73.6171 70.9113 74.5098 70.886 76.5314 70.886C78.553 70.886 79.3143 70.9367 78.2379 70.962Z" fill="#231F20" fill-opacity="0.1"/>
<path d="M111.187 20.0429C111.765 19.8653 113.051 19.5609 114.075 19.3833C115.099 19.2057 117.751 19.0535 119.982 19.0535C122.214 19.0535 124.183 19.1296 124.367 19.2311C124.603 19.3579 124.603 19.6877 124.314 20.6772C124.104 21.3622 123.71 22.8591 122.844 26.0051L119.378 26.1573C116.727 26.2588 115.624 26.411 114.731 26.8169C114.075 27.096 113.104 27.7049 112.526 28.187C111.975 28.669 111.345 29.3794 111.108 29.8107C110.898 30.242 110.662 31.6628 110.399 35.5191H106.593V33.2357H102.392V31.3837C102.392 30.3942 102.549 28.8212 102.759 27.9079C102.943 26.9945 103.416 25.7767 103.81 25.1678C104.177 24.5843 104.939 23.671 105.49 23.1382C106.041 22.6307 107.328 21.7935 108.325 21.2861C109.323 20.7787 110.61 20.2205 111.187 20.0429Z" fill="white"/>
<path d="M102.392 70.0235V51.6297V33.2358H106.593V35.5192H110.531V70.0235H102.392Z" fill="white"/>
<path d="M102.261 70.1502V50.361V30.5718L102.392 70.0234L110.793 70.1502H102.261Z" fill="#231F20" fill-opacity="0.5"/>
<path d="M110.715 60.5093C110.688 65.8118 110.662 61.5241 110.662 50.9953C110.662 40.4664 110.688 36.128 110.715 41.3544C110.768 46.5807 110.768 55.2068 110.715 60.5093Z" fill="#231F20" fill-opacity="0.8"/>
</svg>
