<svg width="238" height="160" viewBox="0 0 238 160" fill="none" xmlns="http://www.w3.org/2000/svg">
<path fill-rule="evenodd" clip-rule="evenodd" d="M116.947 20.3635C117.367 20.3635 117.46 22.3999 117.273 28.0241C117.133 32.1938 116.993 35.6847 116.947 35.7817C116.947 35.8787 114.007 35.6847 110.507 35.3938C106.96 35.1514 103.787 34.7635 103.507 34.6181C103.133 34.4241 105.373 31.7575 109.667 27.3453C113.4 23.515 116.667 20.3635 116.947 20.3635ZM138.133 39.515C148.4 50.1817 156.8 59.2484 156.8 59.6363C156.8 60.2666 155.727 60.315 148.307 59.9756C143.593 59.7817 139.673 59.4908 139.533 59.3453C139.393 59.1999 139.207 57.1635 139.067 54.7878C138.927 52.412 138.647 50.3272 138.46 50.0847C138.273 49.8908 138.133 51.2484 138.133 53.0908C138.133 54.9332 137.993 57.1635 137.433 59.5878L131.367 59.3453C128.053 59.1999 124.18 59.006 120.4 58.6666L120.167 50.5211C120.027 46.0605 119.84 41.2605 119.467 37.3332L126.7 36.6059L119.7 36.1211L119.327 28.8484C119.14 24.8241 119.093 21.2363 119.233 20.8484C119.42 20.3635 125.113 25.9393 138.133 39.515ZM69.5334 109.576V115.879H63.7C59.5467 115.879 57.4 116.073 56.2334 116.606C55.3467 116.994 54.32 117.818 53.9467 118.4C53.5734 119.03 53.1534 120 52.7334 121.697H69.5334V128L52.92 128.242L53.2934 129.794C53.5267 130.812 54.2267 131.733 55.2067 132.364C56.5134 133.188 57.54 133.333 69.5334 133.333V139.636H62.3C55.7667 139.636 54.88 139.539 52.8734 138.521C51.7067 137.939 50.0734 136.679 49.3267 135.757C48.5334 134.836 47.6467 133.333 47.2734 132.461C46.9 131.442 46.6667 128.776 46.6667 124.703C46.6667 119.757 46.8534 118.157 47.5534 116.606C48.02 115.539 48.9067 114.133 49.5134 113.406C50.12 112.727 51.1467 111.806 51.8 111.37C52.4534 110.933 54.04 110.351 55.3 110.109C56.6067 109.867 60.2934 109.673 69.5334 109.576ZM180.6 117.867C181.253 117.818 182.84 118.109 184.1 118.497C185.547 118.933 187.133 119.903 188.253 121.067C189.28 122.085 190.353 123.636 190.727 124.461C191.053 125.333 191.333 127.273 191.333 128.727C191.333 130.376 191.007 132.073 190.447 133.188C189.98 134.206 189.047 135.515 188.44 136.097C187.88 136.679 186.433 137.6 185.267 138.133C184.1 138.667 182.233 139.151 181.067 139.151C179.9 139.151 178.127 138.909 177.1 138.618C175.933 138.279 174.393 137.212 173.087 135.806C171.733 134.448 170.707 132.848 170.38 131.636C170.1 130.57 169.867 129.018 169.867 128.242C169.867 127.467 170.38 125.673 170.94 124.364C171.547 123.006 172.76 121.357 173.647 120.63C174.533 119.903 176.167 118.982 177.333 118.594C178.5 118.206 179.947 117.867 180.6 117.867ZM175.653 127.127C175.513 128 175.607 129.503 175.887 130.424C176.12 131.345 176.727 132.509 177.193 132.945C177.66 133.382 178.593 133.964 179.34 134.254C180.32 134.642 180.973 134.642 182.14 134.061C182.933 133.673 184.007 132.654 184.52 131.782C185.173 130.57 185.313 129.6 185.127 127.757C184.94 125.867 184.567 125.042 183.447 123.976C182.467 123.103 181.487 122.667 180.413 122.667C179.247 122.667 178.407 123.103 177.38 124.121C176.587 124.897 175.793 126.303 175.653 127.127ZM116.573 37.8181L116.34 48.0969C116.2 53.7696 116.06 58.4726 116.06 58.5211C116.013 58.5696 111.347 58.8605 105.7 59.1029C100.053 59.3938 95.3867 59.5393 95.34 59.4908C95.2934 59.4423 95.48 55.3696 95.76 50.4241C96.2267 41.6969 96.2733 41.406 97.4867 40.1453C98.6067 38.9332 99.12 38.8363 104.3 38.3999C107.38 38.1575 111.393 37.915 116.573 37.8181ZM92.4934 45.9635C92.68 46.1575 93.0534 49.2605 93.3334 52.8484C93.5667 56.4363 93.7533 59.4423 93.66 59.4908C93.6133 59.5393 90.4867 59.7332 86.66 59.9756C80.0334 60.3635 79.8 60.315 79.7067 59.3938C79.6134 58.715 81.48 56.4847 85.8667 52.0241C89.32 48.4847 92.3067 45.7696 92.4934 45.9635ZM150.407 61.6726C153.673 61.6241 156.333 61.7211 156.333 61.915C156.333 62.1575 152.973 65.7938 148.867 70.0605C143.92 75.1999 141.26 77.6726 140.933 77.3332C140.7 77.0423 140.28 73.7938 140 70.0605C139.767 66.3272 139.533 62.9817 139.533 62.6423C139.533 62.2544 140.42 62.012 142.007 61.915C143.313 61.8181 147.093 61.7211 150.407 61.6726ZM80.0334 62.012L86.66 62.1575C90.3 62.2544 93.4267 62.4969 93.66 62.6908C93.8467 62.9332 94.1734 65.0181 94.5933 71.515L94.6867 68.1211C94.6867 66.2302 94.92 64.1938 95.4333 62.4484L104.767 62.7393C109.9 62.9332 114.52 63.1756 115.033 63.2726C115.92 63.4666 115.967 63.9999 116.293 71.8544C116.433 76.4605 116.48 80.3393 116.34 80.4847C116.247 80.6302 114.287 80.7757 112.093 80.8726C109.853 80.9696 108.267 81.212 108.5 81.4544C108.78 81.6484 110.553 81.9393 112.56 82.0363C114.52 82.0847 116.247 82.2787 116.387 82.4241C116.527 82.5696 116.807 86.5453 117.04 91.2969C117.227 96.9211 117.227 99.8787 116.9 99.8787C116.667 99.8787 108.267 91.3453 98.2333 80.9211L80.0334 62.012ZM137.667 62.109L137.433 65.5999C137.34 67.5393 137.06 71.3696 136.5 79.0302L134.867 79.2726C133.98 79.4181 130.807 79.6605 127.867 79.806C124.927 79.9514 121.94 80.1938 119.933 80.5332L119.98 74.5696C120.027 71.3211 120.167 67.3453 120.633 62.8363L126.7 62.5453C130.06 62.3999 133.887 62.2544 137.667 62.109ZM119.607 82.4726L122.687 82.715C124.367 82.909 127.727 83.1514 130.153 83.3453C132.58 83.5393 134.633 83.8787 134.727 84.1696C134.82 84.412 131.507 88.1453 127.4 92.412C122.313 97.6969 119.793 100.024 119.467 99.6847C119.14 99.3454 119.093 96.4363 119.28 90.812L119.607 82.4726ZM98.4667 109.624H103.6V117.867H109.667V122.715H103.6V127.467C103.6 130.86 103.787 132.46 104.3 133.285C104.86 134.157 105.467 134.351 109.667 134.351V139.2H106.167C104.02 139.2 102.153 138.909 101.267 138.473C100.52 138.085 99.54 137.115 99.1667 136.291C98.6534 135.224 98.4667 133.188 98.4667 122.715H94.2667V117.867H98.4667V109.624ZM125.58 109.624C126.84 109.624 127.96 109.818 128.1 110.012C128.24 110.206 127.073 111.515 125.533 112.921C123.76 114.521 122.313 115.442 121.567 115.442C120.913 115.442 120.307 115.248 120.167 114.957C120.027 114.715 120.68 113.406 121.613 112.048C123.247 109.721 123.34 109.624 125.58 109.624ZM165.667 109.624V115.442L159.367 115.2L159.227 113.018C159.18 111.806 159.227 110.594 159.367 110.254C159.507 109.818 160.627 109.624 165.667 109.624ZM91 117.867V122.715L78.6334 122.957V125.867L84 126.109C86.94 126.254 89.6934 126.545 90.0667 126.739C90.44 126.885 91.14 127.806 91.6067 128.776C92.0267 129.697 92.4 131.345 92.4 132.412C92.4 133.479 92.0734 135.03 91.7 135.806C91.3267 136.63 90.3467 137.697 89.5067 138.23C88.1534 139.103 87.1734 139.2 72.8 139.2L73.0334 134.594L79.1 134.545C82.46 134.545 85.54 134.351 86.0067 134.206C86.4267 134.012 86.8 133.479 86.8 133.042C86.8 132.557 86.5667 131.879 86.24 131.539C85.82 131.151 84.0934 130.957 80.8734 130.957C78.2134 130.957 75.6467 130.764 75.1334 130.473C74.62 130.23 73.8734 129.212 73.5 128.291C73.1267 127.37 72.8 125.673 72.8 124.557C72.8 123.151 73.1267 121.939 73.8734 120.776C74.48 119.854 75.5067 118.836 76.1134 118.497C76.86 118.109 79.5667 117.867 91 117.867ZM113.027 117.818L129.827 118.109L132.533 121.26V139.2H124.133C117.6 139.2 115.453 139.054 114.333 138.473C113.587 138.085 112.747 137.309 112.467 136.776C112.233 136.242 112 134.351 112 132.557C112 129.794 112.14 129.115 113.027 128.194C113.633 127.564 114.94 126.885 115.967 126.594C116.993 126.351 119.887 126.157 122.407 126.109C126.793 126.109 126.933 126.06 126.933 125.042C126.933 124.412 126.7 123.636 126.373 123.297C125.953 122.86 123.947 122.715 112.933 122.715L113.027 117.818ZM118.207 133.673C118.673 134.254 119.747 134.448 122.873 134.4H126.98V131.006C119.047 131.006 118.533 131.103 118.113 131.976C117.74 132.654 117.787 133.139 118.207 133.673ZM154.98 117.915V122.764H151.107C148.073 122.764 146.953 122.957 145.74 123.733C144.9 124.267 143.92 125.479 143.547 126.4C143.127 127.321 142.847 128.436 142.847 128.824C142.847 129.212 143.173 130.327 143.64 131.297C144.107 132.267 145.087 133.43 145.88 133.818C146.813 134.351 148.493 134.594 154.747 134.642L154.98 139.248H149.707C145.227 139.2 144.153 139.054 142.38 138.133C141.26 137.551 139.767 136.388 139.113 135.515C138.46 134.691 137.667 133.188 137.34 132.121C137.013 131.103 136.78 129.406 136.78 128.339C136.733 127.127 137.247 125.382 138.04 123.782C138.74 122.327 139.953 120.679 140.747 120.145C141.493 119.612 142.847 118.885 143.78 118.545C144.667 118.206 147.56 117.915 154.98 117.915ZM165.713 117.915V139.248H159.18L159.087 128.873C159.04 123.2 159.18 118.4 159.413 118.206C159.6 118.061 161.093 117.915 165.713 117.915Z" fill="white"/>
</svg>
