<svg width="186" height="108" viewBox="0 0 186 108" fill="none" xmlns="http://www.w3.org/2000/svg">
<path fill-rule="evenodd" clip-rule="evenodd" d="M118.7 0C120 0 124 0.9 127.7 2.1C131.5 3.2 137.4 5.3 141 6.7C144.6 8 149.4 10.2 151.7 11.6C154.1 12.9 155.9 14.2 155.7 14.4C155.6 14.7 151.9 13.9 147.5 12.8C141.2 11.2 136 10.7 122.8 10.6C113.5 10.6 105.9 10.2 105.8 9.8C105.7 9.5 108.1 7.1 111.1 4.6C114.1 2.1 117.5 0 118.7 0ZM29.3 62.5V71.5L23.4 71.2C19.6 71.1 17 71.4 16.2 72.2C15.5 72.9 14.9 74.3 15 75.3C15 76.2 15.6 77.3 16.3 77.7C16.9 78 21.6 79.4 26.5 80.7C31.5 82.1 36.7 84 41 87L41.6 84.3C42 82.7 43.3 79.7 44.5 77.5C45.9 75.1 48.6 72.5 51.1 71C54.6 69.1 56.9 68.5 62 68.5C66.2 68.6 69.7 69.2 71.8 70.3C73.5 71.2 76.1 73.2 77.5 74.8C78.9 76.3 80 78.1 80 78.8C80 79.4 80.5 80.2 81 80.5C81.5 80.8 83 79.2 84.3 76.9C85.7 74.3 87.9 72.2 90.5 71C93 69.7 96.6 69 100.3 69C103.5 69 107.8 69.8 110.2 70.8C112.4 71.7 115.1 73.6 116.1 75C117.1 76.4 118.5 80.4 119.3 84C120.167 88.3333 120.833 89.9333 121.3 88.8C121.7 87.8 123.5 86.2 125.3 85.3C127.6 84.1 131 83.6 137.2 83.5C142.4 83.5 146 83.1 146 82.5C146.1 82 145.3 80.8 144.3 79.9C143.3 79 141 77.9 139.2 77.6C136.1 77 136 76.8 136.5 68.5L141.5 68.8C144.2 68.9 148.1 69.8 150 70.8C151.9 71.7 154.4 73.9 157.5 78.9L160.6 74.7C162.3 72.2 165.9 69.3 169.1 67.6C172.4 65.8 176.8 64.5 186 63.5V67.8C186 72 186 72 181.3 73.1C178.1 73.8 175.6 75.2 173.7 77.4C172.2 79.1 170.7 81.6 170.4 83C170.1 84.4 170.3 87.1 170.8 89C171.4 90.9 173.1 93.7 174.7 95.1C176.3 96.5 179.3 97.9 186 99V108H181.7C179.2 108 175.1 106.8 171.5 105.1C167.9 103.4 164 100.5 158 93.5L157.5 105.5L151.7 105.8C146.6 106 146 105.8 146 104C146 102 146 102 142.2 104C139.9 105.3 136.6 106 133.5 106C130.7 106 127.2 105.3 125.5 104.4C123.8 103.6 122.1 102.1 121.5 101.2C120.7 99.8 120.5 100 120 102.5C119.5 105.4 119.3 105.5 108 106L107.7 94.1C107.5 83.8 107.2 81.9 105.5 80.1C104.3 78.8 102.3 77.9 100.5 77.9C98.8 77.9 96.7 78.7 95.8 79.7C94.4 81.2 94 83.8 93.5 105.5H81.7L82 91H67.5C53.3 91 53 91 54 93C54.5 94.1 56 95.7 57.2 96.5C58.5 97.3 60.7 98 62.2 98C64.8 98 65 98.3 65 106H60.7C58.4 106 54.7 105.1 52.5 104.1C50.3 103.2 47.3 100.9 45.7 99.2C43 96 43 96 42.1 98.3C41.6 99.5 40.2 101.5 38.9 102.6C37.6 103.8 35 105.5 33.2 106.4C31.1 107.4 27.4 108 22.2 108C18 108 14 107.6 13.5 107.1C12.9 106.6 10.9 105.7 9.00002 105.1C7.10002 104.5 4.50002 103.2 0.900024 100.5L7.50002 93.9L13 96.5C16.1 97.9 20.4 99 22.7 99C25.1 99 27.9 98.5 29 98C30.1 97.5 31 96.2 31 95.3C31.1 94.3 30.5 93 29.8 92.3C29.1 91.6 25.1 90.3 21 89.2C16.9 88.2 11.8 86.5 9.60003 85.4C7.50003 84.4 5.10002 82.3 4.40002 80.8C3.60002 79.2 3.00002 76.9 3.00002 75.5C3.00002 74.1 3.60002 71.8 4.40002 70.3C5.10002 68.7 6.60002 66.8 7.60002 66C8.60002 65.2 11 63.9 13 63.3C14.9 62.6 19.4 62.1 29.3 62.5ZM53.1 83.1C53 83.6 57 84 62 84H71C68.9 79.7 67.5 78.2 66.6 77.7C65.7 77.3 63.4 77 61.5 77C58.9 77 57.2 77.7 55.5 79.6C54.2 81.1 53.1 82.7 53.1 83.1ZM130.7 93.3C130.3 94.4 130.7 95.7 132 97C133.2 98.2 135.4 99 137.3 99C139 99.1 141.7 98.2 143.3 97C145 95.8 146 94.1 146 92.5C146 90.1 145.7 90 140.8 90.1C137.9 90.1 134.6 90.5 133.5 90.9C132.4 91.3 131.2 92.4 130.8 93.3H130.7ZM125.4 15.1C128.7 15 135.2 15.5 139.9 16C144.6 16.6 152 18 156.4 19.1C160.8 20.2 165.5 21.8 166.9 22.5C169.1 23.8 169.2 23.9 167.4 24C166.3 24 161.3 24.5 156.4 25C151.5 25.6 144 27 139.9 28.1C135.8 29.2 128.8 31.5 124.4 33.3C120 35 112.8 38.8 100.4 46.8L94.1 41.6C89.1 37.5 87.9 36.1 88.5 34.5C88.8 33.4 90.4 30.3 91.9 27.5C93.5 24.8 95.6 21.6 96.6 20.4C97.9 18.9 100.7 18.1 107.4 17.1C112.4 16.4 117.1 15.7 117.9 15.5C118.7 15.4 122.1 15.2 125.4 15.1ZM92.5 20.1C93.1 20 92.7 21.4 91.7 23.3C90.7 25 88.7 28.8 84.8 36.5L80.3 32C77.9 29.5 76 27 76.2 26.5C76.4 26 79.9 24.3 84 22.8C88.1 21.3 91.9 20.1 92.5 20.1ZM96.9 47.5L88.6 55.2C84.1 59.4 80.1 62.9 79.7 63C79.2 63 79.2 60.6 79.5 57.8C79.8 54.9 80.7 49.8 81.6 46.5C82.4 43.2 83.5 39.7 84.1 38.7C84.9 37.2 85.7 37.5 96.9 47.5Z" fill="white"/>
</svg>
