<svg width="88" height="118" viewBox="0 0 88 118" fill="none" xmlns="http://www.w3.org/2000/svg">
<g clip-path="url(#clip0_15_267)">
<path fill-rule="evenodd" clip-rule="evenodd" d="M42.3789 16.0631C48.6814 15.987 51.8689 16.3676 57.5918 17.8902C61.5762 18.956 65.1983 20.1741 65.5605 20.5547C66.0676 21.0876 64.981 22.7625 58.3163 29.7663L53.6075 28.5483C50.9996 27.9392 46.001 27.4063 42.3789 27.4063C38.7568 27.4063 33.7582 27.9392 31.1503 28.6244C28.5424 29.2334 24.7754 30.5276 22.8194 31.365C20.791 32.2786 17.4587 34.1818 11.5908 38.0644L11.8081 56.9444C11.953 75.2154 12.0255 75.8244 13.7641 79.5547C14.7058 81.6102 17.5311 85.5689 19.9217 88.2334C22.3123 90.8979 25.9344 94.3999 27.8904 95.9225C29.9188 97.445 33.9031 100.186 42.1616 105.439L44.7695 103.992C46.2184 103.231 50.1303 100.795 53.4626 98.5108C56.7225 96.227 61.4313 92.2683 63.9668 89.6037C66.9369 86.5586 69.4 82.9805 73.5292 74.3018L73.7465 56.1831C73.819 42.2515 73.6741 37.9883 73.0221 37.6838C72.4426 37.3792 73.4568 35.7805 79.6868 28.9289L84.9027 33.116L84.6129 54.4321C84.3956 74.2257 84.2507 76.0528 82.7294 80.316C81.8601 82.8283 79.6144 87.2438 77.6584 90.1367C75.7749 93.0296 72.2977 97.2928 69.9071 99.5767C67.5165 101.861 62.6628 105.819 59.0407 108.255C55.4186 110.768 50.2027 114.041 42.3789 118L36.5835 114.879C33.396 113.128 28.1802 109.93 24.9927 107.722C21.8052 105.515 16.7342 101.175 13.7641 98.0541C10.7939 94.8567 7.1718 90.2889 5.79539 87.8528C4.41899 85.4167 2.60792 81.5341 1.88349 79.1741C0.651971 75.5199 0.362201 72.3225 -0.144897 33.8773L3.69456 30.2231C5.86784 28.2438 10.0695 25.2747 13.0397 23.676C16.0098 22.0773 20.139 20.0979 22.095 19.4128C24.1234 18.7276 27.6731 17.6618 30.0637 17.1289C32.4543 16.596 38.0323 16.0631 42.3789 16.0631ZM333.236 38.8257H340.118C346.855 38.8257 347 38.9018 346.855 40.5005C346.638 42.0992 346.203 42.2515 337.582 42.6321V47.9612L342.146 48.1134C346.131 48.3418 346.638 48.4941 346.638 49.8644C346.638 51.2347 346.131 51.387 337.582 51.7676V57.8579H342.291C346.493 57.8579 347 58.0102 347 59.3805C347 60.827 346.493 60.9031 333.236 60.9031V38.8257ZM78.3829 1.52246C78.8175 1.52246 79.4695 3.04504 79.7593 4.94827C80.1215 6.85149 80.4113 9.82053 80.4113 11.6476C80.4113 13.3986 79.9042 15.7586 79.3246 16.9005C78.5277 18.4231 78.4553 19.1083 79.1073 19.1844C79.6868 19.3367 79.6868 20.0979 79.0348 22.0773C78.5277 23.5238 77.2962 25.9599 76.2096 27.4063C75.1229 28.8528 74.3261 30.5276 74.471 30.9844C74.5434 31.5173 73.3843 32.8115 71.9355 33.8773C70.3417 34.9431 66.6472 36.3134 63.3872 36.9986C60.1998 37.6838 56.7225 38.7496 55.6359 39.2825C54.4768 39.8915 53.4626 40.9573 53.2453 41.6425C53.1004 42.4038 52.0862 43.4696 51.072 43.9263C49.6232 44.6876 49.2609 44.6876 49.2609 43.9263C49.2609 43.4696 52.5933 39.2063 56.7225 34.6386C60.8518 30.0708 66.1401 24.0567 68.4582 21.316C70.7764 18.5754 73.3843 14.6167 74.3261 12.5612C75.1954 10.4296 76.3545 7.15601 76.7891 5.10053C77.2962 3.12117 78.0206 1.52246 78.3829 1.52246ZM106.491 17.5096C107.939 17.5096 107.939 18.0425 107.939 62.4257C107.939 106.809 107.939 107.342 106.491 107.342C105.042 107.342 105.042 106.809 105.042 62.4257C105.042 18.0425 105.042 17.5096 106.491 17.5096ZM125.398 38.7496L129.31 39.2063L129.672 47.4283C129.962 53.5947 130.324 55.8025 131.121 56.3354C131.701 56.716 133.367 57.0967 134.743 57.0967C136.12 57.0967 137.931 56.6399 138.728 56.0308C140.032 55.0412 140.176 53.8992 140.394 46.8954C140.539 38.8257 140.539 38.8257 144.161 38.8257V46.8192C144.161 52.0721 143.799 55.4979 143.147 56.9444C142.639 58.0863 141.335 59.4566 140.249 59.9134C139.235 60.4463 136.554 60.9031 134.381 60.9031C130.759 60.9031 130.179 60.6747 125.326 55.5741L125.398 38.7496ZM148.507 38.8257H150.318C151.695 38.8257 153.433 40.5767 164.082 53.5947L164.3 38.8257H168.791V60.9031H166.763C165.169 60.827 163.648 59.4567 153.216 46.2102L152.854 60.9031H148.507V38.8257ZM173.138 38.8257H177.484V60.9031H173.138V38.8257ZM182.338 38.9779C183.859 39.2063 184.584 40.196 186.757 45.4489C188.206 48.8747 189.582 51.8438 189.8 52.0721C189.944 52.3005 191.321 49.4076 192.842 45.6773C195.378 39.2063 195.667 38.8257 197.768 38.8257C198.927 38.8257 199.797 39.1302 199.724 39.5108C199.652 39.8154 197.623 44.8399 195.233 50.5496C192.408 57.1728 190.524 60.9031 189.872 60.7509C189.365 60.6747 186.974 56.0308 184.656 50.4734C182.266 44.916 180.382 40.0438 180.382 39.587C180.454 39.1302 181.324 38.8257 182.338 38.9779ZM202.115 38.8257H208.997C215.662 38.8257 215.806 38.9018 215.662 40.5767C215.517 42.0992 215.082 42.3276 206.461 42.6321V47.9612H210.808C214.937 47.9612 215.154 48.0373 215.154 49.8644C215.154 51.6915 214.937 51.7676 206.461 51.7676V57.8579H211.17C215.372 57.8579 215.879 58.0102 215.879 59.3805C215.879 60.827 215.372 60.9031 202.115 60.9031V38.8257ZM219.501 38.8257H224.572C229.208 38.8257 229.788 39.0541 231.816 41.1096C233.048 42.4799 233.99 44.2308 233.99 45.2967C233.99 46.3625 233.12 48.1134 232.178 49.1031C230.512 50.8541 230.44 51.1586 231.454 51.996C232.106 52.5289 233.555 54.7367 236.887 60.9031L234.497 60.9792C232.468 60.9792 231.889 60.5225 230.44 57.7057C229.426 55.9547 228.122 53.8231 227.542 53.1379C226.89 52.3767 225.804 51.7676 225.079 51.7676C223.992 51.7676 223.848 52.5289 223.848 60.9031H219.501V38.8257ZM226.093 47.8089C227.325 47.6567 228.701 47.1237 229.136 46.4386C229.498 45.8296 229.643 44.6876 229.353 44.0025C229.063 43.0889 228.122 42.6321 226.383 42.6321C223.92 42.6321 223.848 42.7844 223.848 45.2967C223.848 47.8089 223.92 47.9612 226.093 47.8089ZM245.291 38.8257C247.029 38.8257 249.13 39.2063 249.927 39.587C250.724 40.0438 251.376 41.0334 251.376 41.8708C251.376 43.0889 251.014 43.3173 249.71 43.0128C248.84 42.7844 247.247 42.4038 246.305 42.1754C245.218 41.947 243.842 42.2515 243.045 42.9367C241.741 43.9263 241.668 44.1547 242.683 45.2967C243.262 46.0579 245.291 47.5044 247.174 48.4941C249.058 49.4837 250.941 50.9302 251.376 51.7676C251.738 52.605 252.1 54.2038 252.1 55.1934C252.1 56.2592 251.231 58.0102 250.289 58.9999C248.913 60.5225 247.754 60.9031 245.218 60.9031C243.407 60.9031 241.089 60.5986 240.147 60.1418C238.771 59.6089 238.336 58.8476 238.336 54.8128L241.016 56.4876C242.9 57.6296 244.349 57.9341 245.725 57.6296C247.247 57.2489 247.681 56.716 247.536 55.4218C247.391 54.2038 246.232 53.0618 243.769 51.6154C241.741 50.4734 239.713 48.9508 239.205 48.1896C238.698 47.4283 238.264 45.7534 238.191 44.4592C238.191 42.6321 238.698 41.5663 240.147 40.4244C241.451 39.3586 243.262 38.8257 245.291 38.8257ZM254.998 38.8257H259.344V60.9031H254.998V38.8257ZM263.691 38.8257L269.269 38.9018C273.326 38.9018 275.716 39.2825 277.962 40.4244C280.353 41.5663 281.367 42.6321 282.599 45.525C283.685 48.0373 283.975 49.9405 283.685 51.7676C283.468 53.2902 282.671 55.3457 281.874 56.3354C281.15 57.4012 279.483 58.8476 278.107 59.6089C276.296 60.5225 273.905 60.9031 263.691 60.9031V38.8257ZM267.965 58.2386C274.413 57.325 276.151 56.5638 277.455 55.1934C278.832 53.747 279.266 52.5289 279.266 49.7883C279.266 46.9715 278.832 45.9818 277.238 44.4592C275.716 43.0889 274.413 42.6321 271.66 42.6321H268.038L267.965 58.2386ZM295.493 38.8257C297.594 38.8257 297.811 39.2063 302.013 49.3315C304.404 55.0412 306.36 60.0657 306.36 60.3702C306.36 60.6747 305.345 60.9031 304.186 60.9031C302.303 60.9031 301.868 60.5225 300.564 55.5741H295.855C291.147 55.5741 291.147 55.5741 290.06 58.2386C289.118 60.4463 288.611 60.9031 284.627 60.9031L288.466 51.2347C290.567 45.9057 292.523 40.8812 292.813 40.196C293.103 39.2825 294.044 38.8257 295.493 38.8257ZM292.596 51.996C292.596 52.3005 293.9 52.5289 295.493 52.5289C297.087 52.5289 298.391 52.2244 298.391 51.7676C298.391 51.387 297.884 49.636 297.304 47.9612C296.725 46.2863 295.928 44.916 295.566 44.916C295.204 44.916 294.407 46.3625 293.755 48.1896C293.103 49.9405 292.596 51.6915 292.596 51.996ZM309.257 38.8257L314.835 38.9018C318.892 38.9018 321.355 39.2825 323.529 40.4244C325.992 41.5663 326.933 42.6321 328.165 45.525C329.252 48.0373 329.541 49.9405 329.252 51.7676C329.034 53.2902 328.237 55.3457 327.513 56.3354C326.789 57.4012 325.05 58.8476 323.673 59.6089C321.935 60.5225 319.472 60.9031 309.257 60.9031V38.8257ZM313.604 58.2386C319.979 57.325 321.79 56.5638 323.021 55.1934C324.398 53.747 324.833 52.5289 324.833 49.7883C324.833 46.9715 324.47 45.9818 322.804 44.4592C321.283 43.0889 319.979 42.6321 317.226 42.6321H313.604V58.2386ZM17.1689 41.3379L22.3123 41.2618C26.0069 41.1857 27.7455 41.4902 28.5424 42.2515C29.1219 42.9367 29.629 43.9263 29.629 44.5354C29.629 45.2205 28.977 45.9057 28.1802 46.0579C27.3833 46.2863 26.7313 46.8192 26.7313 47.1999C26.7313 47.6567 27.166 47.8089 27.6731 47.5805C28.325 47.276 28.5424 49.4837 28.5424 66.6128L30.3534 66.9173C31.3676 66.9934 32.8889 66.9173 33.8307 66.6889C35.352 66.3083 35.4244 65.9276 35.4244 57.0967C35.4244 48.4941 35.352 47.9612 33.9756 47.9612C32.744 47.9612 32.5267 47.5044 32.5267 41.1096H37.9599C42.1616 41.1096 43.4655 41.4141 43.7553 42.2515C43.9726 42.9367 44.1175 44.0786 44.1175 44.916C44.1175 46.0579 43.6104 46.4386 42.3065 46.4386C41.2923 46.4386 40.4954 46.7431 40.4954 47.0476C40.4954 47.3521 45.1317 47.5044 61.1415 47.1999L63.8943 50.0928C66.3574 52.6812 66.5747 53.2902 66.6472 57.0967C66.6472 59.9896 66.285 61.6644 65.4881 62.4257C64.4739 63.4915 64.4739 63.7199 65.4881 64.7096C66.2125 65.547 66.5747 67.4502 66.5747 70.7999C66.5747 75.5199 66.4298 75.9005 61.1415 81.5341L41.2198 81.4579V77.6515C41.2198 74.987 41.5096 73.7689 42.3065 73.4644C43.0309 73.236 43.3931 72.0941 43.3931 70.267C43.3931 68.6683 43.2482 67.6025 43.0309 67.7547C42.8136 67.9831 42.5962 68.6683 42.4513 69.2773C42.3789 69.9625 41.582 71.4089 40.7127 72.5508C39.119 74.6063 38.8292 74.6063 24.1958 74.6063L19.487 68.516V58.2386C19.487 49.636 19.3422 47.9612 18.4004 47.9612C17.6035 47.9612 17.3138 47.0476 17.2413 44.6876L17.1689 41.3379ZM19.1248 47.1999C20.0666 47.1999 20.2839 49.027 20.4288 58.0863L20.6461 68.8967C20.9359 48.1134 20.791 46.4386 19.8493 46.4386C19.1973 46.4386 18.6902 45.525 18.5453 44.0025C18.328 41.5663 18.2555 41.5663 18.1831 44.3831C18.1106 46.4386 18.328 47.1999 19.1248 47.1999ZM35.2795 47.1999C36.2213 47.1999 36.2937 47.0476 35.5693 46.5908C34.9898 46.2863 34.7 45.2205 34.8449 44.0025C34.9898 42.8605 34.8449 41.8708 34.5551 41.8708C34.2653 41.8708 33.9756 43.0889 33.9756 44.5354C33.9756 46.5908 34.2653 47.1999 35.2795 47.1999ZM60.4171 48.7986C64.8361 53.3663 65.1983 54.2038 65.2708 57.8579L65.4156 62.045C65.9227 53.8992 65.7778 53.5186 63.1699 50.7779L60.4171 47.9612L41.582 48.2657L60.4171 48.7986ZM44.1175 64.405C44.1175 71.9418 43.9002 74.7586 43.2482 74.987C42.7411 75.1392 42.886 75.2915 43.6104 75.3676C44.7695 75.4437 44.8419 74.3779 44.8419 64.405C44.8419 54.356 44.7695 53.3663 43.6104 53.3663C42.886 53.4425 42.7411 53.5947 43.2482 53.747C43.9002 54.0515 44.1175 56.8683 44.1175 64.405ZM51.2169 55.1173C51.5067 54.6605 53.028 54.0515 54.6217 53.8992C57.5194 53.5947 57.5194 53.5947 54.1146 53.4425C51.2893 53.3663 50.6374 53.5947 50.6374 54.6605C50.6856 55.5233 50.8788 55.6756 51.2169 55.1173ZM52.0862 57.5534C52.0862 59.1521 52.4484 59.4567 54.2595 59.4567C55.491 59.4567 56.7225 59.5328 57.0123 59.6089C57.3021 59.7612 57.5918 58.9999 57.6643 58.0102C57.7367 57.0205 57.5918 55.9547 57.3021 55.7263C57.0123 55.4218 55.7808 55.2696 54.4768 55.4218C52.5209 55.5741 52.0862 55.9547 52.0862 57.5534ZM54.1146 61.5883C57.5194 61.436 57.5194 61.436 54.6217 61.1315C53.028 60.9792 51.5067 60.4463 51.2169 59.9134C50.8788 59.3551 50.6856 59.5074 50.6374 60.3702C50.6374 61.5121 51.2893 61.6644 54.1146 61.5883ZM31.0779 68.516L33.6133 68.2876C29.7014 67.8308 28.1077 67.2979 27.4557 66.765C26.514 66.0037 26.514 66.0799 27.4557 67.2979C28.1802 68.2115 29.3875 68.6175 31.0779 68.516ZM65.2708 70.4954C65.1983 74.5302 64.9085 75.2915 62.8077 77.4992L60.4171 79.9354L41.582 80.3921L60.4171 80.7728C65.7779 75.1392 65.9227 74.9108 65.633 70.4954L65.4156 65.9276L65.2708 70.4954ZM52.0862 74.3018C56.8674 73.3121 57.7367 73.3883 57.5194 73.9212C57.3021 74.3018 55.8532 74.6825 54.2595 74.6825C52.5933 74.6825 51.2169 74.2257 51.072 73.6928C50.8547 73.1599 50.7098 73.3883 50.7098 74.0734C50.6374 75.1392 51.2169 75.4437 53.6799 75.4437C55.7083 75.4437 57.2296 74.987 58.0989 74.1496C58.8958 73.3121 59.3305 71.8657 59.1856 70.4954C58.9682 68.3637 58.7509 68.2115 55.5634 67.9831L52.2311 67.6786L52.0862 74.3018ZM36.1488 73.6928C37.9599 73.5405 36.1488 73.4644 32.1645 73.4644C28.1802 73.4644 26.7313 73.5405 28.9046 73.7689C31.0779 73.9212 34.3378 73.9212 36.1488 73.6928ZM125.253 71.6373H129.962C132.57 71.6373 135.395 72.0179 136.264 72.5508C137.206 73.0076 138.293 73.9973 138.8 74.6063C139.307 75.2915 139.742 76.3573 139.742 76.9663C139.742 77.5754 139.162 78.9457 136.916 81.9147L138.728 82.9044C139.669 83.3612 140.683 84.7315 140.901 85.9496C141.191 87.0915 141.118 88.8425 140.756 89.9083C140.394 90.8979 139.307 92.1921 138.293 92.725C137.279 93.2579 133.946 93.7147 125.253 93.7147V71.6373ZM131.845 80.6205C133.149 80.4683 134.453 79.8592 134.888 79.2502C135.25 78.6412 135.395 77.4992 135.105 76.8141C134.816 75.9005 133.874 75.4437 132.135 75.4437C129.745 75.4437 129.6 75.596 129.6 78.1083C129.6 80.6205 129.745 80.7728 131.845 80.6205ZM129.6 91.0502C134.381 90.1367 136.047 89.6038 136.337 89.2992C136.627 88.9947 136.844 87.9289 136.699 86.8631C136.482 85.1883 136.12 84.9599 133.077 84.7315L129.672 84.5031L129.6 91.0502ZM144.088 71.6373H149.159C153.868 71.6373 154.448 71.7896 156.404 73.9212C157.707 75.2154 158.577 77.0425 158.577 78.1083C158.577 79.1741 157.78 80.8489 156.766 81.9147C155.172 83.6657 155.1 83.8941 156.186 84.8076C156.838 85.2644 158.142 87.3199 159.084 89.3754C160.026 91.3547 161.04 92.9534 161.33 92.9534C161.619 92.9534 163.72 88.2334 165.966 82.5238C169.805 72.7792 170.24 72.0179 172.124 71.7896C174.152 71.485 174.297 71.8657 178.716 82.067C181.179 87.8528 183.207 92.8012 183.207 93.1818C183.207 93.4863 182.266 93.7147 181.034 93.7147C179.223 93.7147 178.788 93.3341 177.412 88.3857H172.703C168.067 88.3857 167.994 88.3857 166.908 91.0502C165.893 93.7147 165.821 93.7147 156.766 93.7147L155.1 90.5173C154.085 88.6902 152.781 86.6347 152.202 85.8734C151.55 85.1121 150.463 84.5792 149.739 84.5792C148.652 84.5792 148.435 85.3405 148.435 93.7147H144.088V71.6373ZM150.753 80.6205C151.985 80.4683 153.361 79.8592 153.723 79.2502C154.158 78.6412 154.303 77.4992 154.013 76.8141C153.651 75.8244 152.781 75.4437 150.97 75.4437C148.58 75.4437 148.435 75.596 148.435 78.1083C148.435 80.6205 148.58 80.7728 150.753 80.6205ZM169.516 84.8076C169.516 85.1121 170.747 85.3405 172.341 85.3405C173.935 85.3405 175.239 85.036 175.239 84.5792C175.239 84.1986 174.804 82.4476 174.152 80.7728C173.572 79.0979 172.776 77.7276 172.486 77.7276C172.124 77.7276 171.254 79.1741 170.675 81.0012C170.023 82.7521 169.516 84.427 169.516 84.8076ZM192.408 71.6373C194.146 71.6373 196.175 72.0179 196.971 72.3986C197.768 72.8554 198.42 73.845 198.42 74.6825C198.42 75.9005 198.13 76.1289 196.827 75.8244C195.957 75.596 194.363 75.2154 193.349 74.987C192.335 74.7586 190.959 75.0631 190.089 75.6721C188.858 76.6618 188.785 76.9663 189.727 78.1083C190.379 78.8696 192.408 80.2399 194.291 81.2296C196.175 82.2192 198.058 83.7418 198.42 84.5792C198.855 85.4166 199.145 86.9392 199.145 88.005C199.145 89.0708 198.348 90.7457 197.406 91.8115C196.03 93.2579 194.871 93.7147 192.335 93.7147C190.524 93.7147 188.206 93.4102 187.192 92.9534C185.888 92.3444 185.381 91.6592 185.381 87.6244L188.133 89.2992C190.017 90.4412 191.466 90.7457 192.842 90.4412C194.363 90.0605 194.798 89.5276 194.653 88.2334C194.508 87.0154 193.349 85.8734 190.814 84.427C188.858 83.285 186.829 81.7625 186.322 81.0012C185.815 80.2399 185.381 78.565 185.308 77.1947C185.308 75.4437 185.815 74.3779 187.264 73.236C188.568 72.1702 190.379 71.6373 192.408 71.6373ZM202.042 71.6373H206.389V93.7147H202.042V71.6373ZM211.46 71.6373H215.806V90.6696H220.877C225.514 90.6696 225.948 90.8218 225.948 92.1921C225.948 93.6386 225.514 93.7147 211.46 93.7147V71.6373Z" fill="white"/>
</g>
<defs>
<clipPath id="clip0_15_267">
<rect width="88" height="118" fill="white"/>
</clipPath>
</defs>
</svg>
