<svg width="57" height="57" viewBox="0 0 57 57" fill="none" xmlns="http://www.w3.org/2000/svg">
<g clip-path="url(#clip0_114_60)">
<path d="M28.5 1.90017L29.0206 0.0761697C28.6803 -0.0207817 28.3197 -0.0207817 27.9794 0.0761697L28.5 1.90017ZM1.90002 9.50017L1.37942 7.67617C0.94815 7.7991 0.574258 8.07061 0.3239 8.44267C0.0735414 8.81473 -0.0371452 9.26336 0.0114238 9.70917L1.90002 9.50017ZM5.70002 43.7002L3.81142 43.9092C3.84632 44.2243 3.95953 44.5257 4.14073 44.7859C4.32192 45.0461 4.56535 45.2567 4.84882 45.3988L5.70002 43.7002ZM28.5 55.1002L27.6488 56.7988C27.913 56.9312 28.2045 57.0001 28.5 57.0001C28.7956 57.0001 29.087 56.9312 29.3512 56.7988L28.5 55.1002ZM51.3 43.7002L52.1512 45.3988C52.4347 45.2567 52.6781 45.0461 52.8593 44.7859C53.0405 44.5257 53.1537 44.2243 53.1886 43.9092L51.3 43.7002ZM55.1 9.50017L56.9886 9.70917C57.0381 9.26275 56.9279 8.81322 56.6775 8.44035C56.427 8.06749 56.0526 7.7954 55.6206 7.67237L55.1 9.50017ZM28.5 11.4002L30.2404 10.6402L28.5 6.66157L26.7596 10.6402L28.5 11.4002ZM27.9794 0.0761697L1.37942 7.67617L2.42062 11.3242L29.0206 3.72417L27.9794 0.0761697ZM0.0114238 9.70537L3.81142 43.9054L7.58862 43.4874L3.78862 9.28737L0.0114238 9.70537ZM4.84882 45.3988L27.6488 56.7988L29.3512 53.3978L6.55122 41.9978L4.84882 45.3988ZM29.3512 56.7988L52.1512 45.3988L50.4488 41.9978L27.6488 53.3978L29.3512 56.7988ZM53.1886 43.9054L56.9886 9.70537L53.2114 9.28737L49.4114 43.4874L53.1886 43.9054ZM55.6206 7.66857L29.0206 0.0685697L27.9794 3.72417L54.5794 11.3242L55.6206 7.66857ZM16.9404 42.5602L30.2404 12.1602L26.7596 10.6402L13.4596 41.0402L16.9404 42.5602ZM26.7596 12.1602L40.0596 42.5602L43.5404 41.0402L30.2404 10.6402L26.7596 12.1602ZM19 34.2002H38V30.4002H19V34.2002Z" fill="#B90202"/>
</g>
<defs>
<clipPath id="clip0_114_60">
<rect width="57" height="57" fill="white"/>
</clipPath>
</defs>
</svg>
