<svg width="92" height="92" viewBox="0 0 92 92" fill="none" xmlns="http://www.w3.org/2000/svg">
<path d="M3.83333 42.1667V49.8333C3.83333 49.8333 11.5 49.8333 11.5 65.1667V69C11.5 72.05 12.7116 74.9751 14.8683 77.1317C17.0249 79.2884 19.95 80.5 23 80.5H69C72.05 80.5 74.9751 79.2884 77.1317 77.1317C79.2884 74.9751 80.5 72.05 80.5 69V65.1667C80.5 49.8333 88.1667 49.8333 88.1667 49.8333V42.1667C88.1667 42.1667 80.5 42.1667 80.5 26.8333V23C80.5 19.95 79.2884 17.0249 77.1317 14.8683C74.9751 12.7116 72.05 11.5 69 11.5H23C19.95 11.5 17.0249 12.7116 14.8683 14.8683C12.7116 17.0249 11.5 19.95 11.5 23V26.8333C11.5 42.1667 3.83333 42.1667 3.83333 42.1667ZM79.2503 46C79.1351 46.107 79.0226 46.2169 78.913 46.3297C75.049 50.1898 72.8333 56.3193 72.8333 65.1667V69C72.8333 70.0167 72.4295 70.9917 71.7106 71.7106C70.9917 72.4295 70.0167 72.8333 69 72.8333H23C21.9833 72.8333 21.0083 72.4295 20.2894 71.7106C19.5705 70.9917 19.1667 70.0167 19.1667 69V65.1667C19.1667 56.3193 16.951 50.1898 13.087 46.3297C12.9763 46.218 12.8638 46.1081 12.7497 46C12.8649 45.893 12.9774 45.7831 13.087 45.6703C16.951 41.8102 19.1667 35.6807 19.1667 26.8333V23C19.1667 21.9833 19.5705 21.0083 20.2894 20.2894C21.0083 19.5705 21.9833 19.1667 23 19.1667H69C70.0167 19.1667 70.9917 19.5705 71.7106 20.2894C72.4295 21.0083 72.8333 21.9833 72.8333 23V26.8333C72.8333 35.6807 75.049 41.8102 78.913 45.6703L79.2503 46ZM32.5833 26.8333V65.1667H51.75C54.2383 65.1677 56.6598 64.3616 58.6511 62.8695C60.6423 61.3773 62.0959 59.2795 62.7935 56.891C63.4912 54.5025 63.3954 51.9522 62.5204 49.6228C61.6454 47.2934 60.0385 45.3107 57.9408 43.9722C58.9254 42.2222 59.4346 40.2449 59.4178 38.237C59.401 36.2291 58.8587 34.2606 57.8449 32.5274C56.8312 30.7941 55.3813 29.3565 53.6395 28.3575C51.8976 27.3586 49.9246 26.8331 47.9167 26.8333H32.5833ZM40.25 42.1667V34.5H47.9167C48.9333 34.5 49.9083 34.9039 50.6272 35.6228C51.3461 36.3416 51.75 37.3167 51.75 38.3333C51.75 39.35 51.3461 40.325 50.6272 41.0439C49.9083 41.7628 48.9333 42.1667 47.9167 42.1667H40.25ZM40.25 49.8333H51.75C52.7667 49.8333 53.7417 50.2372 54.4606 50.9561C55.1795 51.675 55.5833 52.65 55.5833 53.6667C55.5833 54.6833 55.1795 55.6584 54.4606 56.3772C53.7417 57.0961 52.7667 57.5 51.75 57.5H40.25V49.8333Z" fill="#B90202"/>
</svg>
