<svg width="69" height="69" viewBox="0 0 69 69" fill="none" xmlns="http://www.w3.org/2000/svg">
<g clip-path="url(#clip0_114_52)">
<path d="M34.5 68.8735C33.5167 68.8735 32.6025 68.6176 31.7486 68.1749L23.0402 63.1781C21.7321 62.4824 22.3876 62.2294 22.7815 62.1029C24.5467 61.5336 24.8745 61.4071 26.7087 60.3923C26.9042 60.2658 27.1687 60.329 27.3642 60.4555L34.0429 64.3166C34.3016 64.4431 34.6323 64.4431 34.8278 64.3166L60.9529 49.7001C61.2116 49.5736 61.3439 49.3206 61.3439 49.0044V19.8346C61.3439 19.5184 61.2145 19.2654 60.9529 19.1389L34.8278 4.5885C34.5661 4.462 34.2384 4.462 34.0429 4.5885L7.91775 19.1389C7.65612 19.2654 7.52388 19.5816 7.52388 19.8346V49.0044C7.52388 49.2574 7.65612 49.5736 7.91775 49.7001L15.0535 53.6877C18.9175 55.5852 21.3382 53.3715 21.3382 51.1578V22.3675C21.3382 21.988 21.666 21.6085 22.126 21.6085H25.4639C25.8578 21.6085 26.2488 21.9248 26.2488 22.3675V51.1549C26.2488 56.1545 23.4341 59.064 18.5236 59.064C17.0171 59.064 15.8384 59.064 12.5005 57.4827L5.62638 53.6877C4.79804 53.2323 4.10631 52.5639 3.62264 51.7517C3.13896 50.9395 2.88086 50.0129 2.875 49.0676V19.8979C2.875 18.0004 3.9215 16.2294 5.62638 15.2806L31.7515 0.661249C32.602 0.225072 33.5442 -0.00241852 34.5 -0.00241852C35.4558 -0.00241852 36.398 0.225072 37.2485 0.661249L63.3765 15.2778C65.0785 16.2265 66.125 17.9975 66.125 19.895V49.0647C66.125 50.9622 65.0785 52.7333 63.3765 53.6849L37.2514 68.2985C36.383 68.6749 35.4465 68.8687 34.5 68.8678M42.5529 48.8089C31.096 48.8089 28.7385 43.7489 28.7385 39.445C28.7385 39.0655 29.0663 38.686 29.5234 38.686H32.9274C33.3213 38.686 33.6461 38.939 33.6461 39.3185C34.1723 42.6707 35.6788 44.3152 42.619 44.3152C48.1189 44.3152 50.4764 43.1135 50.4764 40.2672C50.4764 38.6227 49.8209 37.421 41.2447 36.5987C34.1061 35.9001 29.6556 34.385 29.6556 28.8794C29.6556 23.7533 34.1061 20.7144 41.5725 20.7144C49.9531 20.7144 54.0788 23.5002 54.602 29.5751C54.5962 29.7808 54.5269 29.9796 54.4036 30.1444C54.2743 30.2709 54.0787 30.3974 53.8804 30.3974H50.4764C50.311 30.3934 50.1515 30.3357 50.0218 30.233C49.8921 30.1303 49.7994 29.9882 49.7576 29.8281C48.9699 26.3494 46.9401 25.208 41.5725 25.208C35.5465 25.208 34.8278 27.232 34.8278 28.7529C34.8278 30.5871 35.6788 31.1564 43.7978 32.1684C51.8506 33.1804 55.6485 34.6351 55.6485 40.0746C55.5824 45.6464 50.8702 48.8089 42.5529 48.8089Z" fill="#B90202"/>
</g>
<defs>
<clipPath id="clip0_114_52">
<rect width="69" height="69" fill="white"/>
</clipPath>
</defs>
</svg>
