<svg width="456" height="513" viewBox="0 0 456 513" fill="none" xmlns="http://www.w3.org/2000/svg">
<g clip-path="url(#clip0_52_2)">
<path d="M207.604 507.592L144.948 470.518C135.608 465.3 140.176 463.432 143.262 462.356C155.729 458.031 158.267 457.036 171.565 449.463C172.966 448.691 174.794 448.976 176.255 449.828L224.375 478.395C226.141 479.37 228.577 479.37 230.202 478.395L417.825 370.117C419.571 369.122 420.688 367.092 420.688 365.042V148.506C420.688 146.394 419.571 144.404 417.785 143.328L230.242 35.1316C228.496 34.1164 226.202 34.1164 224.456 35.1316L36.9539 143.369C35.1266 144.404 33.9896 146.455 33.9896 148.506V365.062C33.9896 367.133 35.1266 369.082 36.9336 370.077L88.3418 399.76C116.239 413.709 133.314 397.283 133.314 380.777V166.982C133.314 163.957 135.75 161.581 138.775 161.581H162.571C165.535 161.581 167.992 163.957 167.992 166.982V380.777C167.992 417.993 147.729 439.352 112.442 439.352C101.6 439.352 93.0522 439.352 69.216 427.596L20.0209 399.273C7.87944 392.248 0.346878 379.112 0.346878 365.041V148.506C0.346878 134.435 7.87944 121.319 20.0209 114.315L207.665 5.89463C219.542 -0.825798 235.318 -0.825798 247.094 5.89463L434.718 114.315C446.879 121.34 454.432 134.456 454.432 148.506V365.041C454.432 379.112 446.88 392.187 434.718 399.273L247.094 507.592C233.809 514.988 220.659 514.219 207.604 507.592ZM365.869 227.344H341.505C338.987 227.344 336.774 225.557 336.246 223.1C330.399 197.112 316.186 188.808 277.651 188.808C234.486 188.808 229.471 203.833 229.471 215.101C229.471 228.765 235.399 232.745 293.65 240.44C351.311 248.053 378.721 258.855 378.721 299.36C378.721 340.251 344.672 363.661 285.224 363.661C203.097 363.661 185.92 325.957 185.92 294.345C185.92 291.34 188.316 288.944 191.321 288.944H215.583C218.284 288.944 220.557 290.894 220.964 293.533C224.618 318.222 235.521 330.708 285.204 330.708C324.714 330.708 341.545 321.755 341.545 300.802C341.545 288.701 336.794 279.747 275.356 273.717C224.029 268.641 192.255 257.291 192.255 216.238C192.255 178.372 224.171 155.795 277.671 155.795C337.789 155.795 367.513 176.646 371.29 221.436C371.607 224.127 369.186 227.37 365.869 227.344Z" fill="black"/>
</g>
<defs>
<clipPath id="clip0_52_2">
<rect width="455" height="512" fill="white" transform="translate(0.346878 0.854309)"/>
</clipPath>
</defs>
</svg>
