<svg width="78" height="69" viewBox="0 0 78 69" fill="none" xmlns="http://www.w3.org/2000/svg">
<g clip-path="url(#clip0_114_54)">
<path d="M64.1315 22.3414C63.3014 22.0585 62.4643 21.7965 61.6209 21.5555C61.7626 20.9805 61.893 20.4124 62.0088 19.8544C63.9094 10.6904 62.6669 3.30771 58.4229 0.876974C54.3538 -1.45329 47.6991 0.976539 40.9783 6.78616C40.316 7.35975 39.6683 7.94986 39.036 8.55595C38.6126 8.15292 38.1818 7.75772 37.7438 7.37054C30.7 1.15872 23.6398 -1.45934 19.4004 0.978355C15.3349 3.31588 14.1311 10.2561 15.8422 18.9411C16.0125 19.8012 16.2047 20.6569 16.4187 21.5074C15.4193 21.7894 14.455 22.0896 13.5321 22.4092C5.27384 25.2691 0 29.7508 0 34.3995C0 39.2007 5.6617 44.0165 14.263 46.9366C14.9604 47.1724 15.6635 47.3908 16.3718 47.5918C16.1417 48.5078 15.9375 49.4299 15.7594 50.3572C14.1281 58.8914 15.402 65.6677 19.4564 67.9904C23.6441 70.389 30.6726 67.9238 37.5162 61.9816C38.0711 61.4985 38.6138 61.0018 39.1438 60.4918C39.8286 61.148 40.5317 61.7852 41.2522 62.4026C47.8816 68.0685 54.4288 70.3563 58.4793 68.0273C62.6629 65.6217 64.0228 58.3422 62.2574 49.4857C62.1183 48.7918 61.9624 48.1014 61.7897 47.4151C62.2833 47.2698 62.7678 47.1203 63.24 46.9647C72.182 44.0223 78 39.2649 78 34.3995C78 29.7338 72.5558 25.2219 64.1315 22.3414ZM62.1922 43.8234C61.7656 43.9635 61.3281 44.0988 60.882 44.2305C59.8949 41.1264 58.5628 37.8259 56.9324 34.4155C58.4881 31.0866 59.769 27.8281 60.7285 24.7443C61.5265 24.9737 62.3007 25.2155 63.0472 25.4706C70.2652 27.9389 74.6679 31.5877 74.6679 34.3995C74.6679 37.3943 69.913 41.2822 62.1922 43.8234ZM58.9887 50.1284C59.7693 54.0445 59.8805 57.5853 59.3635 60.3535C58.8991 62.8408 57.965 64.4989 56.8096 65.1632C54.3517 66.5765 49.0949 64.7395 43.4256 59.8938C42.7554 59.3198 42.1014 58.7274 41.4643 58.1173C43.6623 55.7299 45.8588 52.9544 48.0026 49.8718C51.7734 49.5395 55.3358 48.996 58.5664 48.2543C58.722 48.8756 58.8629 49.5005 58.9887 50.1284ZM26.5919 64.919C24.1904 65.7612 22.2775 65.7854 21.1212 65.1232C18.6609 63.7139 17.6381 58.2729 19.0332 50.9746C19.1991 50.1122 19.389 49.2545 19.6027 48.4025C22.7976 49.1046 26.3341 49.6094 30.1138 49.9139C32.2722 52.9302 34.5321 55.7026 36.8096 58.1303C36.3256 58.5955 35.8301 59.0488 35.3236 59.4898C32.2972 62.1172 29.2646 63.9814 26.5919 64.919ZM15.341 43.805C11.5376 42.5136 8.39658 40.8355 6.24366 39.0043C4.30889 37.3589 3.33237 35.725 3.33237 34.3995C3.33237 31.5783 7.56661 27.9801 14.629 25.5345C15.486 25.2379 16.383 24.958 17.3139 24.6953C18.2901 27.8487 19.5704 31.1459 21.1155 34.48C19.5503 37.8634 18.2517 41.2132 17.266 44.4039C16.6195 44.2199 15.9777 44.0202 15.341 43.805ZM19.1124 18.3052C17.6466 10.8644 18.6201 5.25151 21.0701 3.84276C23.6794 2.34232 29.4496 4.48162 35.5314 9.84546C35.928 10.196 36.3182 10.5537 36.7017 10.9183C34.4355 13.3354 32.1963 16.0872 30.0571 19.0857C26.3887 19.4234 22.8772 19.9658 19.6487 20.6924C19.4498 19.9014 19.271 19.1052 19.1124 18.3052ZM52.7582 26.5577C51.9956 25.2494 51.2048 23.9576 50.3862 22.6831C52.8749 22.9957 55.2593 23.4106 57.4985 23.9178C56.8264 26.058 55.9885 28.2954 55.0022 30.5893C54.2813 29.2308 53.5331 27.8866 52.7582 26.5577ZM39.0375 13.284C40.5743 14.9378 42.1136 16.7842 43.6276 18.7876C40.5563 18.6435 37.48 18.6429 34.4087 18.7858C35.9242 16.8008 37.4766 14.9569 39.0375 13.284ZM25.2287 26.5801C24.4635 27.8983 23.7293 29.2341 23.0268 30.5863C22.0566 28.3005 21.2264 26.0529 20.5484 23.8824C22.7739 23.3879 25.1471 22.9836 27.6199 22.6767C26.7922 23.959 25.9949 25.2607 25.2287 26.5801ZM27.6909 46.3577C25.1361 46.0744 22.7273 45.691 20.5024 45.2098C21.191 43.0006 22.0396 40.7051 23.0307 38.3703C23.736 39.7236 24.4733 41.0601 25.2418 42.379C26.0322 43.7348 26.8506 45.0627 27.6909 46.3577ZM39.1295 55.7483C37.55 54.056 35.9748 52.1836 34.4364 50.1699C35.93 50.228 37.4525 50.2577 39 50.2577C40.5899 50.2577 42.1614 50.2223 43.7083 50.1539C42.1895 52.2039 40.656 54.079 39.1295 55.7483ZM55.0336 38.2511C56.0762 40.6116 56.9549 42.8949 57.6527 45.0663C55.3913 45.579 52.9495 45.9918 50.3767 46.2983C51.2011 45.0002 51.9995 43.6859 52.7713 42.3563C53.5559 41.0047 54.3102 39.636 55.0336 38.2511ZM49.885 40.7027C48.7034 42.7413 47.4555 44.7413 46.1431 46.6993C43.7658 46.8666 41.3833 46.9496 39 46.9484C36.5726 46.9484 34.2115 46.8733 31.938 46.7269C30.5913 44.7733 29.3195 42.7699 28.1254 40.7208C26.9369 38.6826 25.827 36.6004 24.7976 34.4785C25.8244 32.3561 26.9312 30.2728 28.1156 28.2331L28.1153 28.2334C29.2994 26.1931 30.561 24.1982 31.8974 22.2531C34.217 22.0787 36.5957 21.9879 38.9997 21.9879C41.4146 21.9879 43.7967 22.0796 46.1157 22.2552C47.4386 24.1974 48.6922 26.1854 49.874 28.2155C51.0624 30.2508 52.1838 32.3239 53.2365 34.4316C52.1946 36.5608 51.0767 38.6525 49.885 40.7027ZM56.7587 3.74411C59.3705 5.24032 60.3863 11.2739 58.7453 19.1862C58.6405 19.691 58.5229 20.2051 58.3949 20.7266C55.1585 19.9845 51.6445 19.4328 47.9654 19.0899C45.8223 16.0585 43.6014 13.3024 41.372 10.9165C41.9563 10.3571 42.5545 9.81216 43.166 9.28226C48.9246 4.30488 54.3066 2.33959 56.7587 3.74411ZM39 27.4813C42.8467 27.4813 45.9652 30.5788 45.9652 34.3995C45.9652 38.2202 42.8467 41.3176 39 41.3176C35.1533 41.3176 32.0348 38.2202 32.0348 34.3995C32.0348 30.5788 35.1533 27.4813 39 27.4813Z" fill="#B90202"/>
</g>
<defs>
<clipPath id="clip0_114_54">
<rect width="78" height="69" fill="white"/>
</clipPath>
</defs>
</svg>
