<svg width="119" height="119" viewBox="0 0 119 119" fill="none" xmlns="http://www.w3.org/2000/svg">
<path d="M81.3415 27.2758C80.7713 27.2758 80.3845 27.3452 79.9829 27.4394V27.5039H80.0523C80.32 28.0195 80.7762 28.3964 81.1134 28.8575C81.3811 29.388 81.6092 29.9186 81.877 30.4442L81.9464 30.3698C82.4125 30.0425 82.6405 29.517 82.6405 28.7187C82.4422 28.4856 82.4125 28.2526 82.2439 28.0245C82.0455 27.6923 81.6191 27.5287 81.3514 27.2659L81.3415 27.2758ZM28.6096 92.696H24.0132C23.8839 85.3913 23.4373 78.0957 22.6745 70.8298H22.6348L15.6435 92.696H12.1479L5.20625 70.8298H5.15667C4.6137 78.1071 4.29126 85.3992 4.18979 92.696H0C0.272708 82.948 0.952 73.8048 2.03292 65.2765H7.735L14.3544 85.4271H14.394L21.0729 65.2765H26.5023C27.7022 75.2675 28.4063 84.4156 28.6245 92.696H28.6096ZM48.5272 72.466C46.653 82.6058 44.1837 89.9838 41.1294 94.5802C38.7395 98.1304 36.1215 99.9005 33.2803 99.9005C32.5217 99.9005 31.5945 99.6724 30.4739 99.2163V96.7668C31.0193 96.8511 31.6639 96.8957 32.3878 96.8957C33.7167 96.8957 34.7827 96.5239 35.5959 95.795C36.5727 94.9025 37.0586 93.9009 37.0586 92.7952C37.0586 92.0267 36.6768 90.4648 35.9182 88.1145L30.8904 72.466H35.4025L39.0072 84.1677C39.8204 86.8254 40.1625 88.6798 40.0237 89.7359C42.007 84.4602 43.3854 78.6937 44.1639 72.466H48.5272ZM109.639 92.696H96.5983V65.2765H100.986V89.3244H109.639V92.696ZM93.177 93.3654L88.1393 90.8862C88.5856 90.5094 89.017 90.1028 89.4037 89.6467C91.5507 87.1377 92.6167 83.4091 92.6167 78.4755C92.6167 69.4018 89.0566 64.86 81.9315 64.86C78.4408 64.86 75.7138 66.0103 73.7503 68.3159C71.6182 70.8347 70.5472 74.5436 70.5472 79.4474C70.5472 84.2669 71.4893 87.8071 73.3933 90.0582C75.1287 92.0911 77.7417 93.1076 81.2423 93.1076C82.5513 93.1076 83.7512 92.944 84.8371 92.6217L91.4069 96.4495L93.1919 93.3654H93.177ZM76.8542 87.2072C75.7385 85.4222 75.1832 82.5463 75.1832 78.5995C75.1832 71.6925 77.2855 68.2366 81.4803 68.2366C83.6768 68.2366 85.2982 69.0646 86.3246 70.7157C87.4353 72.5107 87.9906 75.3567 87.9906 79.259C87.9906 86.2205 85.8883 89.7111 81.6935 89.7111C79.487 89.7111 77.8756 88.8831 76.8443 87.232L76.8542 87.2072ZM68.6333 85.0999C68.6333 87.4303 67.7804 89.3442 66.0748 90.8317C64.3691 92.3192 62.0932 93.063 59.2124 93.063C56.52 93.063 53.9368 92.2101 51.413 90.5094L52.5881 88.1492C54.7598 89.2401 56.7184 89.7756 58.4885 89.7756C60.1347 89.7756 61.4288 89.4136 62.3709 88.6847C62.8417 88.3298 63.2219 87.8685 63.4805 87.3385C63.739 86.8085 63.8685 86.2249 63.8584 85.6354C63.8584 83.9991 62.718 82.6108 60.6454 81.4456C58.7215 80.3895 54.8788 78.188 54.8788 78.188C52.7864 76.6657 51.7452 75.0345 51.7452 72.352C51.7452 70.1207 52.5236 68.3357 54.0756 66.9722C55.6375 65.5938 57.6456 64.9145 60.1248 64.9145C62.6634 64.9145 64.9839 65.5888 67.0664 66.9474L66.0103 69.3076C64.3463 68.5766 62.552 68.1887 60.7346 68.1672C59.3314 68.1672 58.2455 68.5043 57.4919 69.1886C57.1094 69.5054 56.8011 69.9023 56.5886 70.3512C56.3762 70.8001 56.2648 71.2901 56.2622 71.7867C56.2622 73.4131 57.4225 74.8113 59.5645 76.0013C61.5131 77.0674 65.45 79.3234 65.45 79.3234C67.597 80.8357 68.663 82.4472 68.663 85.1148L68.6333 85.0999ZM115.152 56.0837C112.5 56.0143 110.442 56.282 108.721 57.0159C108.226 57.2142 107.432 57.2142 107.363 57.8439C107.636 58.1067 107.675 58.5381 107.908 58.905C108.305 59.5694 108.989 60.457 109.624 60.923C110.318 61.4685 111.012 61.994 111.741 62.4601C113.03 63.2535 114.493 63.7245 115.757 64.5228C116.476 64.9889 117.21 65.5789 117.939 66.0748C118.301 66.3227 118.534 66.7689 119 66.9276V66.8284C118.772 66.5309 118.703 66.0995 118.479 65.7673C118.147 65.4351 117.815 65.1376 117.488 64.8104C116.514 63.5275 115.352 62.3991 114.042 61.4635C112.981 60.7396 110.66 59.7281 110.224 58.5133L110.159 58.4439C110.883 58.3794 111.746 58.1166 112.44 57.9183C113.566 57.6208 114.597 57.6853 115.762 57.3927C116.288 57.2588 116.818 57.0952 117.349 56.9266V56.6291C116.754 56.0341 116.308 55.2259 115.693 54.6706C113.977 53.1705 112.146 51.8062 110.219 50.5899C109.178 49.9255 107.859 49.499 106.763 48.9338C106.366 48.7355 105.702 48.6363 105.474 48.3041C104.879 47.5802 104.532 46.6182 104.11 45.7555C103.137 43.8668 102.232 41.9434 101.398 39.989C100.803 38.6899 100.441 37.3958 99.7121 36.2058C96.2908 30.5681 92.587 27.1518 86.8898 23.8099C85.6651 23.1157 84.1975 22.8182 82.6455 22.4513C81.8175 22.4117 80.9894 22.3522 80.1663 22.3175C79.6209 22.0844 79.0953 21.4547 78.6293 21.1522C76.7451 19.9622 71.8661 17.3839 70.4778 20.7952C69.5853 22.9472 71.8016 25.0693 72.5702 26.1602C73.1404 26.9188 73.8593 27.7865 74.256 28.6393C74.489 29.2145 74.5535 29.8045 74.7865 30.4045C75.3121 31.8623 75.8129 33.4886 76.5071 34.8521C76.869 35.5463 77.2657 36.2752 77.7318 36.8999C77.9995 37.2619 78.4557 37.4305 78.5598 38.0255C78.0938 38.6998 78.064 39.6815 77.7963 40.5046C76.6063 44.2581 77.0723 48.8991 78.7582 51.6609C79.2887 52.484 80.5531 54.3086 82.2439 53.6095C83.7314 53.0145 83.4041 51.1303 83.8305 49.4693C83.9297 49.0726 83.8653 48.8098 84.0685 48.5421V48.6165C84.5346 49.5486 85.0007 50.4362 85.4271 51.3683C86.4485 52.9947 88.2335 54.6805 89.726 55.806C90.5193 56.401 91.149 57.4324 92.1407 57.7993V57.7001H92.0663C91.8531 57.4125 91.5705 57.2737 91.3028 57.0407C90.6741 56.4252 90.0939 55.7622 89.5673 55.0573C88.1703 53.1485 86.9316 51.1287 85.8635 49.0181C85.318 47.9768 84.8619 46.8563 84.4255 45.8299C84.2272 45.4332 84.2272 44.8382 83.895 44.6399C83.3992 45.3638 82.6703 45.9935 82.3083 46.886C81.6786 48.314 81.6142 50.0692 81.3762 51.8939C81.2423 51.9286 81.3068 51.8939 81.2423 51.9633C80.1812 51.7055 79.8193 50.6048 79.4226 49.6825C78.4309 47.3273 78.2673 43.5441 79.1251 40.8319C79.3581 40.1377 80.3498 37.9461 79.9531 37.2817C79.7449 36.652 79.0904 36.29 78.7284 35.7793C78.2628 35.1146 77.8642 34.4054 77.5384 33.6621C76.7451 31.8077 76.3484 29.755 75.4857 27.9005C75.089 27.0427 74.3948 26.1453 73.8296 25.3569C73.1999 24.4644 72.5057 23.8347 72.0049 22.7786C71.8413 22.4166 71.6083 21.8167 71.871 21.42C71.9405 21.1523 72.0793 21.0481 72.3371 20.9737C72.7735 20.6167 73.9982 21.0828 74.4295 21.2812C75.6543 21.777 76.6856 22.2431 77.712 22.9372C78.178 23.2645 78.6788 23.8942 79.2738 24.0578H79.968C81.0291 24.2909 82.224 24.1273 83.2157 24.4198C84.9759 24.985 86.5626 25.8081 87.9856 26.7006C92.3705 29.5017 95.937 33.412 98.3238 38.0354C98.7204 38.799 98.894 39.4981 99.2559 40.2914C99.9501 41.9277 100.808 43.5788 101.512 45.1605C102.206 46.7224 102.876 48.314 103.872 49.6081C104.368 50.3023 106.361 50.6643 107.254 51.0262C107.913 51.3237 108.94 51.5964 109.535 51.9584C110.675 52.6525 111.786 53.4459 112.857 54.2095C113.402 54.5863 115.053 55.4143 115.152 56.0837Z" fill="#B90202"/>
</svg>
